<svg width="50" height="50" viewBox="0 0 50 50" fill="none" xmlns="http://www.w3.org/2000/svg">
<path d="M24.5 25.815C22.4525 22.7325 20.315 20.505 18.065 19.1775C15.815 17.8275 13.8575 17.355 12.125 17.7375C10.4825 18.1425 9.065 19.065 7.94 20.55C6.95 21.8775 6.5 23.385 6.5 25.0725V25.5C6.5 27.255 6.7475 29.055 7.31 30.8775C7.5125 31.44 7.625 31.44 7.7375 30.8775C8.0075 29.4825 8.66 28.4475 9.6725 27.8175C10.7075 27.1875 12.0575 27.21 13.745 27.8625C15.4325 28.5375 17.075 30 18.695 32.1375C21.575 36.0075 24.95 38.37 28.82 39.2025C33.815 39.9225 37.5725 38.325 40.115 34.5C40.8125 33.1275 41.375 31.935 41.69 30.8775C41.8925 30.18 41.8025 30.1125 41.375 30.675C40.3175 32.07 38.9 32.9925 37.1 33.375C35.3 33.825 33.2525 33.375 30.935 32.25C28.6175 30.9675 26.48 28.875 24.5 25.815ZM35.6825 16.86C32.1725 11.5725 28.37 8.625 24.2975 7.8825C21.0575 7.3875 17.5475 8.5125 13.745 11.2575C13.25 11.6175 13.025 11.7975 13.0475 11.8425C13.0925 11.8875 13.385 11.7525 13.9475 11.4825C19.5725 8.7375 24.995 11.6175 30.1925 20.1225C31.3175 22.0125 32.4875 23.4975 33.725 24.555C34.9625 25.6125 36.11 26.2425 37.2125 26.445C38.2925 26.625 39.2825 26.625 40.16 26.355C41.0375 26.0625 41.825 25.6125 42.5 24.9825C42.5 23.6325 42.2975 22.125 41.8025 20.55C40.6775 20.82 39.665 20.73 38.7875 20.28C37.91 19.875 36.875 18.6825 35.6825 16.86ZM24.5 3C30.6875 3 35.975 5.25 40.3625 9.6375C44.75 14.025 47 19.3125 47 25.5C47 31.6875 44.75 36.975 40.3625 41.3625C35.975 45.75 30.6875 48 24.5 48C18.3125 48 13.025 45.75 8.6375 41.3625C4.25 36.975 2 31.6875 2 25.5C2 19.3125 4.25 14.025 8.6375 9.6375C13.025 5.25 18.3125 3 24.5 3Z" fill="white"/>
</svg>
