<svg width="50" height="50" viewBox="0 0 50 50" fill="none" xmlns="http://www.w3.org/2000/svg">
<path d="M25 25.35C22.725 21.925 20.35 19.45 17.85 17.975C15.35 16.475 13.175 15.95 11.25 16.375C9.425 16.825 7.85 17.85 6.6 19.5C5.5 20.975 5 22.65 5 24.525V25C5 26.95 5.275 28.95 5.9 30.975C6.125 31.6 6.25 31.6 6.375 30.975C6.675 29.425 7.4 28.275 8.525 27.575C9.675 26.875 11.175 26.9 13.05 27.625C14.925 28.375 16.75 30 18.55 32.375C21.75 36.675 25.5 39.3 29.8 40.225C35.35 41.025 39.525 39.25 42.35 35C43.125 33.475 43.75 32.15 44.1 30.975C44.325 30.2 44.225 30.125 43.75 30.75C42.575 32.3 41 33.325 39 33.75C37 34.25 34.725 33.75 32.15 32.5C29.575 31.075 27.2 28.75 25 25.35ZM37.425 15.4C33.525 9.525 29.3 6.25 24.775 5.425C21.175 4.875 17.275 6.125 13.05 9.175C12.5 9.575 12.25 9.775 12.275 9.825C12.325 9.875 12.65 9.725 13.275 9.425C19.525 6.375 25.55 9.575 31.325 19.025C32.575 21.125 33.875 22.775 35.25 23.95C36.625 25.125 37.9 25.825 39.125 26.05C40.325 26.25 41.425 26.25 42.4 25.95C43.375 25.625 44.25 25.125 45 24.425C45 22.925 44.775 21.25 44.225 19.5C42.975 19.8 41.85 19.7 40.875 19.2C39.9 18.75 38.75 17.425 37.425 15.4ZM25 0C31.875 0 37.75 2.5 42.625 7.375C47.5 12.25 50 18.125 50 25C50 31.875 47.5 37.75 42.625 42.625C37.75 47.5 31.875 50 25 50C18.125 50 12.25 47.5 7.375 42.625C2.5 37.75 0 31.875 0 25C0 18.125 2.5 12.25 7.375 7.375C12.25 2.5 18.125 0 25 0Z" fill="url(#paint0_linear_44_38)"/>
<defs>
<linearGradient id="paint0_linear_44_38" x1="46" y1="11.5" x2="10" y2="45" gradientUnits="userSpaceOnUse">
<stop stop-color="#001B42"/>
<stop offset="1" stop-color="#0090FC"/>
</linearGradient>
</defs>
</svg>
