<svg width="45" height="27" viewBox="0 0 45 27" fill="none" xmlns="http://www.w3.org/2000/svg">
<path fill-rule="evenodd" clip-rule="evenodd" d="M16.065 16.1775C18.315 17.505 20.4525 19.7325 22.5 22.815C23.5851 24.4919 24.7174 25.8783 25.9008 27H44.5744C44.8575 25.557 45 24.057 45 22.5C45 16.3125 42.75 11.025 38.3625 6.6375C33.975 2.25 28.6875 0 22.5 0C16.3125 0 11.025 2.25 6.6375 6.6375C2.25 11.025 0 16.3125 0 22.5C0 24.057 0.14247 25.557 0.425617 27H5.06276C4.67429 25.4772 4.5 23.9727 4.5 22.5V22.0725C4.5 20.385 4.95 18.8775 5.94 17.55C7.065 16.065 8.4825 15.1425 10.125 14.7375C11.8575 14.355 13.815 14.8275 16.065 16.1775ZM22.2975 4.8825C26.37 5.625 30.1725 8.5725 33.6825 13.86C34.875 15.6825 35.91 16.875 36.7875 17.28C37.665 17.73 38.6775 17.82 39.8025 17.55C40.2975 19.125 40.5 20.6325 40.5 21.9825C39.825 22.6125 39.0375 23.0625 38.16 23.355C37.2825 23.625 36.2925 23.625 35.2125 23.445C34.11 23.2425 32.9625 22.6125 31.725 21.555C30.4875 20.4975 29.3175 19.0125 28.1925 17.1225C22.995 8.6175 17.5725 5.7375 11.9475 8.4825C11.385 8.7525 11.0925 8.8875 11.0475 8.8425C11.025 8.7975 11.25 8.6175 11.745 8.2575C15.5475 5.5125 19.0575 4.3875 22.2975 4.8825Z" fill="white" fill-opacity="0.3"/>
<path d="M5.97439 27H14.8379C13.8207 26.0025 12.7915 25.2811 11.745 24.8625C10.0575 24.21 8.7075 24.1875 7.6725 24.8175C6.88536 25.3073 6.3158 26.0418 5.97439 27Z" fill="white" fill-opacity="0.3"/>
</svg>
