<svg width="512" height="512" viewBox="0 0 512 512" fill="none" xmlns="http://www.w3.org/2000/svg">
<path d="M92.4026 437.47L56.002 29.1802H455.997L419.56 437.408L255.757 482.82L92.4026 437.47V437.47Z" fill="#1572B6"/>
<path d="M256 448.113L388.362 411.415L419.503 62.564H256V448.113Z" fill="#33A9DC"/>
<path d="M256 210.485H322.263L326.839 159.208H256V109.132H381.567L380.365 122.568L368.055 260.56H256V210.485Z" fill="white"/>
<path d="M256.3 340.534L256.079 340.6L200.313 325.542L196.746 285.604H146.486L153.499 364.231L256.072 392.699L256.3 392.634V340.534V340.534Z" fill="#EBEBEB"/>
<path d="M318.009 258.444L311.977 325.503L256.127 340.579V392.678L358.783 364.228L359.536 355.767L368.247 258.444H318.009Z" fill="white"/>
<path d="M256.175 109.132V159.208H135.22L134.218 147.955L131.937 122.568L130.738 109.132H256.175V109.132ZM256.005 210.492V260.568H200.94L199.937 249.315L197.653 223.928L196.458 210.492H256.005V210.492Z" fill="#EBEBEB"/>
</svg>
