<svg width="512" height="512" viewBox="0 0 512 512" fill="none" xmlns="http://www.w3.org/2000/svg">
<path d="M60.364 166.56H88.364V296.172C74.004 298.9 63.456 299.992 52.004 299.992C17.82 299.992 0 284.536 0 254.896C0 226.352 18.912 207.808 48.184 207.808C52.728 207.808 56.184 208.168 60.364 209.26V166.56ZM60.364 231.8C57.092 230.712 54.364 230.348 50.912 230.348C36.728 230.348 28.548 239.076 28.548 254.348C28.548 269.256 36.364 277.44 50.728 277.44C53.82 277.44 56.368 277.256 60.368 276.712L60.364 231.8Z" fill="#092E20"/>
<path d="M132.909 209.799V274.711C132.909 297.071 131.273 307.799 126.365 317.071C121.817 325.987 115.817 331.619 103.453 337.803L77.4531 325.439C89.8171 319.619 95.8131 314.531 99.6331 306.711C103.633 298.711 104.913 289.439 104.913 265.071V209.799H132.909ZM104.909 166.707H132.909V195.435H104.909V166.707ZM149.825 216.163C162.185 210.347 174.005 207.803 186.917 207.803C201.277 207.803 210.733 211.619 214.917 219.075C217.277 223.255 218.005 228.711 218.005 240.347V297.255C205.461 299.075 189.645 300.347 178.005 300.347C154.553 300.347 144.005 292.163 144.005 273.983C144.005 254.343 158.005 245.255 192.369 242.343V236.163C192.369 231.071 189.825 229.255 182.733 229.255C172.373 229.255 160.733 232.163 149.821 237.803V216.163H149.825ZM193.641 260.711C175.097 262.527 169.097 265.439 169.097 272.711C169.097 278.163 172.553 280.711 180.189 280.711C184.369 280.711 188.189 280.351 193.641 279.439V260.711ZM231.649 214.163C248.193 209.803 261.829 207.803 275.649 207.803C290.013 207.803 300.377 211.071 306.561 217.439C312.381 223.439 314.197 229.979 314.197 243.983V298.891H286.197V245.079C286.197 234.351 282.557 230.351 272.557 230.351C268.741 230.351 265.289 230.711 259.649 232.351V298.895H231.649V214.163ZM325.077 314.163C334.897 319.255 344.713 321.619 355.077 321.619C373.437 321.619 381.257 314.163 381.257 296.343V295.799C375.805 298.527 370.349 299.619 363.077 299.619C338.529 299.619 322.893 283.435 322.893 257.799C322.893 225.979 345.985 207.979 386.893 207.979C398.893 207.979 409.985 209.251 423.441 211.979L413.853 232.179C406.397 230.723 413.253 231.979 407.621 231.435V234.347L407.981 246.163L408.165 261.435C408.349 265.255 408.349 269.075 408.529 272.891V280.531C408.529 304.531 406.529 315.799 400.529 325.071C391.801 338.711 376.713 345.439 355.257 345.439C344.345 345.439 334.897 343.799 325.073 339.983V314.159L325.077 314.163ZM380.717 230.523H377.805C372.353 230.343 365.989 231.795 361.621 234.523C354.897 238.343 351.441 245.251 351.441 255.071C351.441 269.071 358.349 277.071 370.713 277.071C374.533 277.071 377.625 276.343 381.257 275.255V265.615C381.257 262.347 381.077 258.707 381.077 254.891L380.897 241.983L380.713 232.707V230.527L380.717 230.523ZM466.909 207.439C494.909 207.439 512.001 225.075 512.001 253.619C512.001 282.895 494.185 301.259 465.817 301.259C437.817 301.259 420.545 283.619 420.545 255.259C420.545 225.799 438.365 207.435 466.909 207.435V207.439ZM466.361 278.711C477.089 278.711 483.457 269.799 483.457 254.347C483.457 239.075 477.273 229.983 466.549 229.983C455.453 229.983 449.089 238.895 449.089 254.343C449.089 269.803 455.453 278.711 466.361 278.711Z" fill="#092E20"/>
</svg>
