<svg width="512" height="512" viewBox="0 0 512 512" fill="none" xmlns="http://www.w3.org/2000/svg">
<path d="M73.5562 387.408L55.1562 376.78L260.156 21.7363L278.544 32.3603L73.5562 387.408Z" fill="#E434AA"/>
<path d="M50.9375 348.422H460.922V369.662H50.9375V348.422Z" fill="#E434AA"/>
<path d="M264.122 478.753L59.0625 360.361L69.6865 341.953L274.751 460.361L264.122 478.753ZM442.263 170.173L237.202 51.765L247.827 33.377L452.891 151.765L442.263 170.173Z" fill="#E434AA"/>
<path d="M69.7374 170.093L59.1094 151.689L264.189 33.2969L274.813 51.6889L69.7374 170.093Z" fill="#E434AA"/>
<path d="M438.487 387.408L233.503 32.3603L251.895 21.7363L456.895 376.78L438.487 387.408ZM67.2031 137.592H88.4551V374.408H67.2071L67.2031 137.592Z" fill="#E434AA"/>
<path d="M423.547 137.594H444.795V374.41H423.547V137.594Z" fill="#E434AA"/>
<path d="M260.514 469.765L251.234 453.685L429.578 350.705L438.858 366.785L260.514 469.765Z" fill="#E434AA"/>
<path d="M472.951 381.313C460.671 402.689 433.279 409.985 411.907 397.705C390.531 385.409 383.235 358.017 395.515 336.641C407.811 315.265 435.203 307.969 456.579 320.253C478.079 332.673 485.375 359.937 472.951 381.313M116.359 175.361C104.063 196.737 76.6714 204.033 55.2954 191.749C33.9194 179.453 26.6234 152.065 38.9074 130.689C51.2034 109.313 78.5914 102.017 99.9674 114.297C121.343 126.721 128.639 153.985 116.359 175.361ZM39.0474 381.313C26.7474 359.937 34.0474 332.673 55.4194 320.249C76.7954 307.969 104.059 315.265 116.483 336.641C128.763 358.017 121.467 385.281 100.091 397.705C78.5914 409.985 51.3274 402.689 39.0474 381.313M395.639 175.361C383.359 153.985 390.655 126.721 412.031 114.297C433.407 102.017 460.671 109.313 473.091 130.689C485.371 152.065 478.079 179.329 456.703 191.753C435.327 204.033 407.935 196.737 395.639 175.361ZM255.999 506.625C250.132 506.63 244.32 505.478 238.898 503.235C233.476 500.992 228.549 497.702 224.4 493.553C220.251 489.403 216.96 484.477 214.717 479.054C212.474 473.632 211.322 467.821 211.327 461.953C211.322 456.085 212.474 450.274 214.717 444.852C216.96 439.429 220.251 434.503 224.4 430.353C228.549 426.204 233.476 422.914 238.898 420.671C244.32 418.428 250.132 417.276 255.999 417.281C261.867 417.276 267.679 418.428 273.101 420.671C278.523 422.914 283.45 426.204 287.599 430.353C291.748 434.503 295.039 439.429 297.282 444.852C299.525 450.274 300.677 456.085 300.671 461.953C300.671 486.533 280.703 506.625 255.999 506.625ZM255.999 94.721C250.132 94.7262 244.32 93.5743 238.898 91.3312C233.476 89.0881 228.549 85.7978 224.4 81.6486C220.251 77.4993 216.96 72.5727 214.717 67.1504C212.474 61.7282 211.322 55.9169 211.327 50.049C211.322 44.1811 212.474 38.3697 214.717 32.9475C216.96 27.5253 220.251 22.5986 224.4 18.4494C228.549 14.3001 233.476 11.0098 238.898 8.76671C244.32 6.52359 250.132 5.37171 255.999 5.37697C261.867 5.37171 267.679 6.52359 273.101 8.76671C278.523 11.0098 283.45 14.3001 287.599 18.4494C291.748 22.5986 295.039 27.5253 297.282 32.9475C299.525 38.3697 300.677 44.1811 300.671 50.049C300.677 55.9169 299.525 61.7282 297.282 67.1504C295.039 72.5727 291.748 77.4993 287.599 81.6486C283.45 85.7978 278.523 89.0881 273.101 91.3312C267.679 93.5743 261.867 94.7262 255.999 94.721" fill="#E434AA"/>
</svg>
