<svg width="512" height="512" viewBox="0 0 512 512" fill="none" xmlns="http://www.w3.org/2000/svg">
<path d="M92.401 437.474L55.998 29.1816H455.998L419.555 437.412L255.754 482.82L92.401 437.474Z" fill="#E44D26"/>
<path d="M256 448.112L388.361 411.414L419.502 62.564H256V448.112Z" fill="#F16529"/>
<path d="M255.997 213.995H189.733L185.156 162.714H255.997V112.641H130.43L131.63 126.074L143.936 264.071H255.997V213.995ZM255.997 344.045L255.775 344.107L200.008 329.043L196.446 289.111H146.173L153.188 367.735L255.768 396.21L255.997 396.148V344.045Z" fill="#EBEBEB"/>
<path d="M255.822 213.995V264.071H317.484L311.673 329.014L255.822 344.088V396.188L358.482 367.735L359.235 359.276L371.002 227.442L372.221 213.995H358.729H255.822ZM255.822 112.641V162.714H376.78L377.784 151.464L380.069 126.074L381.266 112.641H255.822Z" fill="white"/>
</svg>
