<svg width="512" height="512" viewBox="0 0 512 512" fill="none" xmlns="http://www.w3.org/2000/svg">
<path d="M210.325 271.267C210.325 271.267 197.189 278.911 219.689 281.495C246.945 284.607 260.877 284.159 290.909 278.483C290.909 278.483 298.825 283.431 309.849 287.719C242.505 316.571 157.433 286.047 210.325 271.267ZM202.089 233.607C202.089 233.607 187.353 244.523 209.869 246.851C238.989 249.855 261.977 250.103 301.785 242.439C301.785 242.439 307.277 248.023 315.929 251.067C234.521 274.883 143.845 252.943 202.089 233.607V233.607Z" fill="#0074BD"/>
<path d="M271.457 169.724C288.061 188.836 267.105 206.02 267.105 206.02C267.105 206.02 309.237 184.272 289.889 157.028C271.813 131.632 257.961 119.02 332.973 75.5156C332.977 75.5156 215.221 104.916 271.457 169.724Z" fill="#EA2D2E"/>
<path d="M360.527 299.124C360.527 299.124 370.255 307.144 349.815 313.344C310.951 325.116 188.039 328.668 153.899 313.812C141.635 308.472 164.647 301.064 171.883 299.508C179.431 297.872 183.743 298.172 183.743 298.172C170.095 288.56 95.5234 317.048 145.867 325.22C283.163 347.472 396.135 315.196 360.527 299.124V299.124ZM216.647 194.588C216.647 194.588 154.131 209.44 194.511 214.84C211.567 217.12 245.543 216.596 277.215 213.94C303.091 211.768 329.059 207.124 329.059 207.124C329.059 207.124 319.943 211.036 313.339 215.54C249.843 232.24 127.207 224.46 162.515 207.388C192.367 192.944 216.647 194.588 216.647 194.588V194.588ZM328.799 257.268C393.339 223.74 363.495 191.516 342.667 195.856C337.575 196.92 335.287 197.84 335.287 197.84C335.287 197.84 337.187 194.864 340.799 193.588C382.007 179.108 413.691 236.312 327.511 258.968C327.511 258.968 328.499 258.072 328.799 257.268Z" fill="#0074BD"/>
<path d="M289.893 5.25195C289.893 5.25195 325.633 41.008 255.989 95.98C200.141 140.088 243.253 165.232 255.965 193.972C223.365 164.556 199.453 138.66 215.493 114.564C239.049 79.196 304.309 62.04 289.893 5.25195V5.25195Z" fill="#EA2D2E"/>
<path d="M222.999 348.157C284.935 352.117 380.075 345.953 382.327 316.645C382.327 316.645 377.999 327.753 331.131 336.569C278.259 346.521 213.039 345.365 174.367 338.981C174.367 338.981 182.287 345.541 222.999 348.157V348.157Z" fill="#0074BD"/>
<path d="M379.467 400.724H377.579V399.668H382.66V400.724H380.78V405.992H379.464L379.467 400.724V400.724ZM389.608 400.988H389.583L387.712 405.992H386.848L384.988 400.988H384.967V405.992H383.72V399.668H385.548L387.272 404.144L389 399.668H390.816V405.992H389.608V400.988V400.988ZM212.847 460.148C207.007 465.212 200.832 468.06 195.284 468.06C187.388 468.06 183.104 463.316 183.104 455.72C183.104 447.5 187.688 441.48 206.056 441.48H212.843V460.148H212.847ZM228.972 478.34V422.032C228.972 407.636 220.759 398.14 200.983 398.14C189.439 398.14 179.319 400.996 171.091 404.628L173.459 414.6C179.939 412.22 188.319 410.012 196.543 410.012C207.943 410.012 212.843 414.6 212.843 424.096V431.212H207.147C179.463 431.212 166.972 441.952 166.972 458.104C166.972 472.02 175.203 479.928 190.703 479.928C200.663 479.928 208.108 475.816 215.056 469.796L216.319 478.344H228.972V478.34V478.34ZM282.78 478.34H262.672L238.468 399.584H256.032L271.056 447.98L274.396 462.52C281.98 441.488 287.356 420.136 290.044 399.588H307.128C302.556 425.512 294.316 453.98 282.78 478.34V478.34ZM359.932 460.148C354.072 465.212 347.891 468.06 342.363 468.06C334.459 468.06 330.18 463.316 330.18 455.72C330.18 447.5 334.776 441.48 353.124 441.48H359.928V460.148H359.932ZM376.064 478.34V422.032C376.064 407.636 367.828 398.14 348.068 398.14C336.512 398.14 326.396 400.996 318.168 404.628L320.54 414.6C327.02 412.22 335.411 410.012 343.635 410.012C355.019 410.012 359.932 414.6 359.932 424.096V431.212H354.236C326.544 431.212 314.056 441.952 314.056 458.104C314.056 472.02 322.28 479.928 337.776 479.928C347.74 479.928 355.171 475.816 362.139 469.796L363.411 478.344H376.064V478.34V478.34ZM149.291 491.724C144.703 498.44 137.272 503.756 129.144 506.752L121.188 497.372C127.376 494.196 132.676 489.072 135.144 484.296C137.272 480.044 138.155 474.576 138.155 461.492V371.564H155.291V460.256C155.291 477.756 153.899 484.832 149.291 491.724Z" fill="#EA2D2E"/>
</svg>
