<svg width="512" height="512" viewBox="0 0 512 512" fill="none" xmlns="http://www.w3.org/2000/svg">
<path d="M26.5932 269.408C26.5932 285.048 25.1413 290.14 21.4093 293.888C17.2653 297.128 11.8773 298.908 6.28125 298.908L7.73725 307.844C16.3932 307.936 24.7972 305.296 31.3612 300.42C34.8932 296.7 37.5173 292.42 39.0813 287.812C40.6359 283.25 41.1111 278.389 40.4692 273.612V214.432H26.5932V269.408ZM130.125 262.36C130.125 269.064 130.125 275.048 130.737 280.236H118.409L117.581 269.596C115.001 273.356 111.313 276.468 106.893 278.596C102.376 280.758 97.4166 281.837 92.4092 281.748C80.3932 281.748 66.0933 276.124 66.0933 253.156V214.984H79.9853V250.736C79.9853 263.156 84.4373 271.468 96.9693 271.468C99.5327 271.501 102.082 271.084 104.501 270.236C106.834 269.422 108.996 268.182 110.877 266.58C112.656 265.061 114.097 263.188 115.109 261.08C116.085 259.054 116.578 256.829 116.549 254.58V214.532H130.421V262L130.125 262.36ZM156.441 236.252C156.441 227.936 156.441 221.14 155.813 214.984H168.253L168.861 226.156C171.641 222.108 175.625 218.796 180.409 216.564C185.287 214.308 190.631 213.241 196.001 213.452C214.453 213.452 228.329 226.78 228.329 246.612C228.329 270.032 211.657 281.656 193.625 281.656C189.052 281.841 184.497 280.992 180.297 279.172C176.189 277.372 172.673 274.688 170.109 271.372V307.124H156.441V236.252ZM170.109 253.672C170.141 255.296 170.361 256.92 170.737 258.5C171.909 262.468 174.577 265.984 178.329 268.5C182.081 271.016 186.705 272.36 191.453 272.36C206.065 272.36 214.657 262.08 214.657 247.16C214.657 234.108 206.577 222.936 191.969 222.936C186.189 223.344 180.781 225.548 176.753 229.156C172.737 232.764 170.361 237.5 170.113 242.5L170.109 253.672ZM253.065 214.92L269.753 253.44C271.526 257.819 273.146 262.259 274.609 266.752C276.065 262.828 277.609 257.812 279.489 253.172L294.609 214.92H309.221L288.501 261.392C278.141 283.736 271.813 295.264 262.281 302.232C257.485 306.032 251.625 308.672 245.297 309.92L241.877 299.92C246.224 298.698 250.326 296.732 254.001 294.108C259.049 290.548 263.065 286.016 265.705 280.876C266.262 280.003 266.649 279.033 266.845 278.016C266.718 276.928 266.401 275.87 265.909 274.892L237.737 214.732H252.857L253.065 214.92ZM346.065 196.172V214.936H365.953V223.876H346.065V259.092C346.065 267.14 348.765 271.78 356.425 271.78C359.139 271.816 361.849 271.544 364.501 270.968L365.125 279.92C361.126 281.101 356.965 281.64 352.797 281.516C350.04 281.669 347.279 281.303 344.657 280.436C342.123 279.608 339.784 278.275 337.781 276.516C333.565 271.64 331.641 265.58 332.393 259.532V223.78H320.581V214.844H332.593V198.936L346.065 196.172ZM391.533 249.672C391.253 252.704 391.733 255.752 392.953 258.592C394.224 261.521 396.149 264.12 398.581 266.188C401.081 268.344 404.081 270 407.393 271.048C410.689 272.108 414.233 272.516 417.737 272.28C424.795 272.432 431.82 271.278 438.457 268.876L440.845 277.812C432.702 280.688 424.103 282.054 415.469 281.844C410.389 282.14 405.313 281.484 400.565 279.936C395.926 278.438 391.637 276.02 387.953 272.828C384.393 269.704 381.641 265.952 379.921 261.828C378.211 257.765 377.534 253.341 377.953 248.952C377.953 229.28 391.533 213.736 413.705 213.736C438.565 213.736 444.785 232.5 444.785 244.484C444.905 246.328 444.905 248.172 444.785 250.016H391.217L391.533 249.672ZM432.141 240.736C432.545 238.338 432.347 235.878 431.565 233.576C430.742 231.205 429.383 229.055 427.593 227.296C425.705 225.419 423.45 223.951 420.969 222.984C418.393 221.962 415.648 221.433 412.877 221.424C407.189 221.784 401.845 223.952 397.921 227.532C393.985 231.092 391.749 235.796 391.641 240.732L432.141 240.736ZM465.841 235.236C465.841 227.564 465.841 220.936 465.221 214.86H477.661V227.64H478.281C479.581 223.704 482.281 220.2 485.985 217.64C489.705 215.08 494.253 213.58 499.001 213.344C500.297 213.204 501.625 213.204 502.937 213.344V224.516C501.353 224.36 499.757 224.36 498.173 224.516C493.469 224.672 488.985 226.296 485.581 229.092C482.157 231.892 480.049 235.672 479.625 239.704C479.237 241.544 479.033 243.392 479.001 245.248V280.016H465.329V235.328L465.841 235.236Z" fill="#4E4E4E"/>
<path d="M439.065 29.1245C439.319 35.1374 437.803 41.0925 434.705 46.2525C431.617 51.387 427.076 55.4916 421.657 58.0485C416.248 60.5881 410.202 61.4518 404.297 60.5285C398.383 59.6067 392.878 56.9426 388.485 52.8765C384.074 48.7857 380.968 43.4841 379.557 37.636C378.145 31.7879 378.49 25.6532 380.549 20.0005C382.586 14.3588 386.244 9.44498 391.065 5.8765C395.876 2.32529 401.636 0.290452 407.609 0.0324972C411.573 -0.134509 415.53 0.485035 419.252 1.85537C422.974 3.22571 426.389 5.3197 429.297 8.0165C435.203 13.4854 438.708 21.0667 439.049 29.1085L439.065 29.1245Z" fill="#767677"/>
<path d="M263.035 387.159C182.643 387.159 112.439 357.703 75.9708 314.091C89.4934 353.14 114.791 387.035 148.379 411.107C181.826 435.071 221.937 447.96 263.083 447.967C304.226 447.952 344.333 435.063 377.783 411.107C411.365 387.036 436.653 353.139 450.159 314.091C413.627 357.703 343.423 387.159 263.035 387.159ZM263.003 103.531C343.395 103.531 413.611 132.999 450.067 176.591C436.543 137.544 411.246 103.651 377.659 79.5792C344.216 55.6163 304.112 42.7203 262.971 42.6992C221.829 42.7203 181.726 55.6163 148.283 79.5792C114.691 103.644 89.3943 137.54 75.8828 176.591C112.411 133.079 182.611 103.531 263.003 103.531Z" fill="#F37726"/>
<path d="M152.658 471.936C152.988 479.517 151.081 487.027 147.174 493.532C143.293 500.005 137.571 505.176 130.739 508.384C123.907 511.593 116.275 512.695 108.814 511.548C101.354 510.396 94.4137 507.026 88.8944 501.876C83.3519 496.718 79.4452 490.046 77.6584 482.688C75.8944 475.302 76.3296 467.562 78.9104 460.42C81.4989 453.303 86.1295 447.107 92.2224 442.608C99.3189 437.393 108.011 434.815 116.803 435.318C125.596 435.82 133.938 439.371 140.394 445.36C147.824 452.264 152.23 461.819 152.658 471.952V471.936Z" fill="#9E9E9E"/>
<path d="M85.1414 93.6723C80.7226 93.8645 76.3476 92.7276 72.5814 90.4083C68.7898 88.0842 65.7716 84.6889 63.9078 80.651C62.0441 76.6131 61.4183 72.1136 62.1094 67.7203C62.7732 63.3157 64.7323 59.2082 67.7374 55.9203C70.7159 52.6471 74.5983 50.3308 78.8934 49.2643C83.1857 48.1922 87.7023 48.4488 91.8454 50.0003C96.0035 51.5322 99.6066 54.2757 102.189 57.8763C105.24 62.0895 106.746 67.2245 106.455 72.4178C106.165 77.611 104.095 82.5458 100.593 86.3923C98.6233 88.5666 96.2421 90.3294 93.5873 91.5789C90.9325 92.8283 88.0566 93.5398 85.1254 93.6723H85.1414Z" fill="#616262"/>
</svg>
