<svg width="720" height="720" viewBox="0 0 720 720" fill="none" xmlns="http://www.w3.org/2000/svg">
<path d="M588.403 2.5H131.597C60.2988 2.5 2.5 60.2988 2.5 131.597V588.403C2.5 659.701 60.2988 717.5 131.597 717.5H588.403C659.701 717.5 717.5 659.701 717.5 588.403V131.597C717.5 60.2988 659.701 2.5 588.403 2.5Z" fill="#001E2B"/>
<path fill-rule="evenodd" clip-rule="evenodd" d="M558.281 517.607C557.773 517.709 557.263 518.829 557.263 519.441C557.161 523.518 557.059 534.325 557.059 541.663C557.059 541.868 557.364 542.276 557.67 542.276C559.199 542.377 562.869 542.479 566.029 542.479C570.412 542.479 572.96 541.868 574.389 541.257C578.057 539.421 579.791 535.445 579.791 531.061C579.791 521.174 572.859 517.403 562.563 517.403C561.849 517.301 559.812 517.301 558.281 517.607ZM584.582 563.172C584.582 553.081 577.141 547.474 563.685 547.474C563.073 547.474 558.791 547.372 557.772 547.576C557.466 547.678 557.059 547.883 557.059 548.189C557.059 555.425 556.957 566.945 557.263 571.43C557.466 573.366 558.894 576.118 560.628 576.934C562.461 577.954 566.64 578.157 569.495 578.157C577.547 578.157 584.582 573.672 584.582 563.172ZM537.487 512.001C538.506 512.001 541.563 512.306 549.413 512.306C556.855 512.306 562.767 512.103 570.004 512.103C578.872 512.103 591.106 515.261 591.106 528.514C591.106 535.037 586.517 540.237 580.503 542.786C580.199 542.888 580.199 543.09 580.503 543.192C589.066 545.334 596.611 550.634 596.611 560.623C596.611 570.411 590.494 576.628 581.625 580.502C576.222 582.846 569.495 583.662 562.665 583.662C557.466 583.662 543.501 583.05 535.755 583.255C534.939 582.948 536.468 579.278 537.18 578.668C539.016 578.565 540.443 578.463 542.38 577.851C545.132 577.138 545.437 576.322 545.845 572.143C546.05 568.575 546.05 555.934 546.05 546.964C546.05 534.63 546.152 526.272 546.05 522.194C545.948 519.035 544.826 518.015 542.584 517.403C540.85 517.098 537.997 516.689 535.652 516.384C535.141 515.873 536.874 512.407 537.487 512.001ZM478.668 575.406C481.116 577.341 485.907 578.156 490.188 578.156C495.693 578.156 501.197 577.138 506.498 572.346C511.901 567.455 515.672 559.91 515.672 547.883C515.672 536.362 511.289 526.984 502.319 521.48C497.222 518.319 490.698 516.996 483.155 516.996C480.911 516.996 478.771 517.098 477.447 517.709C477.14 517.913 476.427 518.829 476.427 519.339C476.222 521.378 476.222 537.076 476.222 546.251C476.222 555.731 476.222 568.983 476.427 570.511C476.427 572.042 477.14 574.386 478.669 575.406H478.668ZM455.529 512C457.466 512 464.907 512.306 468.475 512.306C474.898 512.306 479.485 512.001 491.615 512.001C501.808 512.001 510.371 514.753 516.488 519.951C523.928 526.373 527.804 535.242 527.804 546.046C527.804 561.44 520.769 570.309 513.735 575.406C506.702 580.604 497.527 583.662 484.48 583.662C477.548 583.662 465.621 583.458 455.733 583.356H455.632C455.122 582.438 456.446 578.87 457.262 578.768C459.913 578.463 460.627 578.361 461.952 577.852C464.092 577.036 464.5 575.915 464.806 572.143C465.111 565.109 465.009 556.649 465.009 547.066C465.009 540.237 465.111 526.882 464.907 522.601C464.602 519.034 463.073 518.116 460.014 517.504C458.486 517.199 456.446 516.791 453.593 516.485C453.185 515.771 455.019 512.611 455.529 512.001V512Z" fill="white"/>
<path fill-rule="evenodd" clip-rule="evenodd" d="M332.185 579.379C329.637 579.073 327.803 578.666 325.56 577.648C325.254 577.443 324.744 576.424 324.744 576.015C324.54 572.448 324.54 562.254 324.54 555.426C324.54 549.92 323.623 545.13 321.278 541.766C318.526 537.891 314.552 535.649 309.454 535.649C304.969 535.649 298.954 538.707 293.959 542.988C293.857 543.09 293.043 543.805 293.143 542.682C293.143 541.562 293.348 539.319 293.449 537.789C293.552 536.362 292.736 535.649 292.736 535.649C289.474 537.279 280.3 539.421 276.935 539.725C274.49 540.237 273.877 542.582 276.428 543.396H276.529C279.279 544.212 281.116 545.13 282.541 546.047C283.561 546.863 283.459 547.984 283.459 548.901C283.561 556.545 283.561 568.269 283.256 574.692C283.154 577.24 282.441 578.157 280.605 578.564L280.809 578.463C279.382 578.768 278.261 579.073 276.527 579.278C275.916 579.89 275.916 583.152 276.527 583.866C277.649 583.866 283.561 583.56 288.455 583.56C295.183 583.56 298.65 583.866 300.381 583.866C301.095 583.05 301.3 579.991 300.892 579.278C298.954 579.176 297.527 578.973 296.202 578.564C294.368 578.156 293.857 577.24 293.754 575.099C293.552 569.696 293.552 558.279 293.552 550.532C293.552 548.391 294.163 547.372 294.774 546.76C297.119 544.722 300.892 543.294 304.255 543.294C307.517 543.294 309.656 544.314 311.288 545.639C313.531 547.474 314.245 550.125 314.551 552.061C315.059 556.444 314.857 565.108 314.857 572.653C314.857 576.729 314.551 577.749 313.022 578.259C312.308 578.564 310.473 578.973 308.332 579.175C307.619 579.89 307.823 583.05 308.332 583.764C311.288 583.764 314.755 583.458 319.852 583.458C326.17 583.458 330.249 583.764 331.88 583.764C332.389 583.152 332.593 580.196 332.185 579.379ZM360.422 540.441C355.02 540.441 351.656 544.62 351.656 551.143C351.656 557.77 354.612 565.415 362.97 565.415C364.398 565.415 367.049 564.802 368.27 563.376C370.209 561.542 371.534 557.871 371.534 553.997C371.534 545.537 367.354 540.44 360.422 540.44V540.441ZM359.708 585.496C357.67 585.496 356.243 586.108 355.325 586.619C351.043 589.368 349.107 592.02 349.107 595.182C349.107 598.136 350.229 600.48 352.675 602.519C355.632 605.068 359.708 606.291 364.906 606.291C375.305 606.291 379.892 600.684 379.892 595.182C379.892 591.306 377.955 588.758 373.98 587.331C371.126 586.108 365.927 585.496 359.708 585.496ZM360.422 612C354.204 612 349.718 610.675 345.845 607.719C342.073 604.864 340.442 600.582 340.442 597.627C340.442 596.812 340.647 594.568 342.482 592.53C343.602 591.306 346.049 588.962 351.86 584.986C352.063 584.885 352.165 584.783 352.165 584.578C352.165 584.374 351.961 584.17 351.757 584.07C346.967 582.235 345.54 579.278 345.131 577.648V577.443C345.031 576.831 344.826 576.22 345.743 575.609C346.457 575.099 347.477 574.487 348.597 573.774C350.331 572.754 352.165 571.633 353.287 570.714C353.491 570.511 353.491 570.308 353.491 570.104C353.491 569.9 353.287 569.696 353.082 569.595C345.948 567.25 342.381 561.948 342.381 553.997C342.381 548.799 344.724 544.11 348.903 541.154C351.757 538.912 358.894 536.159 363.583 536.159H363.889C368.679 536.261 371.329 537.279 375.101 538.606C377.14 539.319 379.077 539.624 381.728 539.624C385.703 539.624 387.435 538.401 388.862 536.975C388.965 537.178 389.169 537.688 389.271 539.013C389.373 540.338 388.965 542.275 387.945 543.702C387.129 544.824 385.295 545.639 383.461 545.639H382.95C381.116 545.436 380.299 545.231 380.299 545.231L379.892 545.435C379.791 545.639 379.892 545.843 379.994 546.149L380.097 546.353C380.3 547.27 380.708 550.022 380.708 550.737C380.708 559.096 377.344 562.763 373.776 565.516C370.309 568.064 366.335 569.696 361.85 570.104C361.748 570.104 361.341 570.104 360.422 570.205C359.913 570.205 359.2 570.308 359.097 570.308H358.995C358.18 570.511 356.142 571.531 356.142 573.263C356.142 574.792 357.058 576.628 361.442 576.934C362.358 577.035 363.275 577.035 364.296 577.138C370.107 577.545 377.344 578.055 380.708 579.176C385.397 580.909 388.353 585.088 388.353 590.083C388.353 597.628 382.951 604.661 373.98 609.043C369.597 610.981 365.213 612 360.422 612ZM418.526 540.95C416.386 540.95 414.448 541.459 413.021 542.479C409.047 544.925 407.007 549.819 407.007 556.953C407.007 570.308 413.735 579.686 423.317 579.686C426.171 579.686 428.414 578.87 430.351 577.24C433.307 574.792 434.836 569.9 434.836 563.07C434.836 549.819 428.209 540.949 418.527 540.949L418.526 540.95ZM420.361 584.579C403.032 584.579 396.814 571.837 396.814 559.91C396.814 551.551 400.178 545.13 406.905 540.542C411.696 537.586 417.405 535.956 422.503 535.956C435.754 535.956 445.03 545.436 445.03 559.096C445.03 568.371 441.361 575.709 434.326 580.196C430.963 582.438 425.153 584.579 420.36 584.579H420.361ZM238.71 540.949C236.569 540.949 234.633 541.459 233.204 542.479C229.23 544.925 227.19 549.819 227.19 556.953C227.19 570.308 233.918 579.686 243.5 579.686C246.355 579.686 248.598 578.87 250.535 577.24C253.49 574.792 255.019 569.9 255.019 563.07C255.019 549.819 248.496 540.949 238.71 540.949ZM240.545 584.579C223.215 584.579 216.997 571.837 216.997 559.91C216.997 551.551 220.361 545.13 227.088 540.542C231.88 537.586 237.589 535.956 242.686 535.956C255.938 535.956 265.214 545.436 265.214 559.096C265.214 568.371 261.544 575.709 254.509 580.196C251.248 582.438 245.437 584.579 240.545 584.579ZM124.031 583.56C123.827 583.255 123.622 582.336 123.725 581.216C123.725 580.399 123.929 579.89 124.031 579.686C126.171 579.379 127.293 579.073 128.515 578.768C130.554 578.259 131.37 577.138 131.471 574.59C131.779 568.473 131.779 556.851 131.676 548.799V548.594C131.676 547.678 131.676 546.555 130.554 545.74C128.923 544.722 126.987 543.805 124.439 543.089C123.521 542.785 122.909 542.275 123.011 541.664C123.011 541.052 123.623 540.338 124.949 540.134C128.312 539.828 137.078 537.688 140.544 536.159C140.748 536.362 141.055 536.975 141.055 537.79L140.953 538.911C140.85 540.032 140.748 541.358 140.748 542.682C140.748 543.09 141.157 543.396 141.563 543.396C141.767 543.396 141.972 543.294 142.175 543.192C148.699 538.095 154.612 536.261 157.669 536.261C162.665 536.261 166.539 538.606 169.495 543.498C169.698 543.805 169.902 543.906 170.209 543.906C170.412 543.906 170.717 543.805 170.82 543.6C176.834 539.013 182.849 536.261 186.823 536.261C196.304 536.261 201.911 543.294 201.911 555.221C201.911 558.585 201.911 562.968 201.809 566.945C201.809 570.511 201.707 573.773 201.707 576.118C201.707 576.627 202.419 578.259 203.541 578.564C204.967 579.278 206.906 579.584 209.454 579.992H209.556C209.76 580.705 209.352 583.355 208.945 583.866C208.332 583.866 207.415 583.866 206.396 583.764C203.816 583.63 201.232 583.561 198.649 583.56C192.329 583.56 189.067 583.661 185.905 583.866C185.703 583.05 185.6 580.604 185.905 579.992C187.742 579.686 188.658 579.379 189.78 579.074C191.819 578.463 192.329 577.545 192.431 574.895C192.431 572.959 192.838 556.444 192.226 552.469C191.615 548.391 188.556 543.6 181.828 543.6C179.28 543.6 175.305 544.62 171.432 547.575C171.228 547.78 171.023 548.288 171.023 548.594V548.697C171.432 550.837 171.432 553.285 171.432 557.056V563.682C171.432 568.269 171.329 572.551 171.432 575.811C171.432 578.055 172.757 578.564 173.878 578.973C174.491 579.073 174.896 579.176 175.407 579.278C176.324 579.482 177.242 579.686 178.669 579.992C178.873 580.4 178.873 581.724 178.567 582.846C178.465 583.458 178.26 583.763 178.158 583.866C174.693 583.764 171.126 583.661 165.927 583.661C164.398 583.661 161.747 583.764 159.505 583.764C157.669 583.764 155.937 583.866 154.919 583.866C154.816 583.661 154.612 582.949 154.612 581.826C154.612 580.91 154.816 580.196 155.02 579.992C155.529 579.89 155.937 579.788 156.447 579.788C157.669 579.584 158.689 579.379 159.708 579.176C161.442 578.667 162.053 577.749 162.155 575.507C162.461 570.409 162.767 555.834 162.053 552.163C160.83 546.25 157.467 543.294 152.063 543.294C148.904 543.294 144.927 544.824 141.666 547.271C141.156 547.678 140.748 548.696 140.748 549.614V555.629C140.748 562.968 140.748 572.143 140.85 576.118C140.953 577.34 141.359 578.768 143.705 579.278C144.214 579.379 145.03 579.584 146.049 579.686L147.883 579.992C148.088 580.604 147.986 583.05 147.578 583.866C146.559 583.866 145.336 583.764 143.908 583.764C141.767 583.661 139.015 583.56 135.957 583.56C132.39 583.56 129.841 583.661 127.802 583.764C126.375 583.56 125.253 583.56 124.031 583.56Z" fill="white"/>
<path fill-rule="evenodd" clip-rule="evenodd" d="M368.514 472L358.663 468.633C358.663 468.633 359.866 418.421 341.845 414.816C329.835 400.882 343.772 -176.226 387.017 412.894C387.017 412.894 372.119 420.341 369.477 433.077C366.592 445.571 368.514 472 368.514 472Z" fill="black"/>
<path fill-rule="evenodd" clip-rule="evenodd" d="M368.514 472L358.663 468.633C358.663 468.633 359.866 418.421 341.845 414.816C329.835 400.882 343.772 -176.226 387.017 412.894C387.017 412.894 372.119 420.341 369.477 433.077C366.592 445.571 368.514 472 368.514 472Z" fill="#A6A385"/>
<path fill-rule="evenodd" clip-rule="evenodd" d="M373.804 423.47C373.804 423.47 460.058 366.768 439.872 248.798C420.413 163.028 374.523 134.917 369.477 124.105C363.953 116.416 358.666 102.963 358.666 102.963L362.27 341.54C362.27 341.782 354.824 414.578 373.806 423.473" fill="black"/>
<path fill-rule="evenodd" clip-rule="evenodd" d="M373.804 423.47C373.804 423.47 460.058 366.768 439.872 248.798C420.413 163.028 374.523 134.917 369.477 124.105C363.953 116.416 358.666 102.963 358.666 102.963L362.27 341.54C362.27 341.782 354.824 414.578 373.806 423.473" fill="#499D4A"/>
<path fill-rule="evenodd" clip-rule="evenodd" d="M353.621 426.591C353.621 426.591 272.651 371.332 277.457 274.029C282.021 176.723 339.202 128.911 350.256 120.261C357.465 112.572 357.705 109.689 358.187 102C363.232 112.812 362.271 263.696 362.99 281.473C365.149 349.948 359.146 413.62 353.621 426.591Z" fill="black"/>
<path fill-rule="evenodd" clip-rule="evenodd" d="M353.621 426.591C353.621 426.591 272.651 371.332 277.457 274.029C282.021 176.723 339.202 128.911 350.256 120.261C357.465 112.572 357.705 109.689 358.187 102C363.232 112.812 362.271 263.696 362.99 281.473C365.149 349.948 359.146 413.62 353.621 426.591Z" fill="#58AA50"/>
</svg>
