<svg width="512" height="512" viewBox="0 0 512 512" fill="none" xmlns="http://www.w3.org/2000/svg">
<path d="M8.004 361.832H24.436V296.94L49.876 353.512C52.876 360.36 56.984 362.78 65.044 362.78C73.104 362.78 77.056 360.36 80.056 353.512L105.496 296.94V361.832H121.928V297.048C121.928 290.728 119.4 287.668 114.184 286.092C101.7 282.196 93.324 285.568 89.532 293.996L64.568 349.828L40.396 293.992C36.76 285.568 28.228 282.196 15.744 286.088C10.528 287.668 8 290.724 8 297.044V361.832H8.004ZM135.596 309.008H152.024V344.76C151.872 346.7 152.648 351.26 161.648 351.404C166.24 351.476 197.096 351.404 197.384 351.404V308.832H213.852C213.928 308.832 213.836 366.888 213.836 367.128C213.924 381.448 196.072 384.556 187.84 384.796H135.952V373.74C136.04 373.74 187.804 373.752 187.932 373.736C198.512 372.62 197.26 367.364 197.256 365.596V361.284H162.332C146.084 361.136 135.732 354.044 135.6 345.884C135.592 345.136 135.956 309.368 135.596 309.008V309.008Z" fill="#00618A"/>
<path d="M226.523 361.832H273.771C279.303 361.832 284.679 360.676 288.943 358.676C296.051 355.412 299.527 350.988 299.527 345.188V333.18C299.527 328.44 295.579 324.012 287.835 321.068C283.727 319.484 278.667 318.648 273.767 318.648H253.855C247.219 318.648 244.059 316.648 243.271 312.224C243.115 311.696 243.115 311.276 243.115 310.748V303.268C243.115 302.848 243.115 302.424 243.271 301.9C244.059 298.528 245.799 297.58 251.647 297.052L253.227 296.948H300.159V285.996H254.019C247.383 285.996 243.907 286.416 240.747 287.364C230.951 290.42 226.679 295.264 226.679 303.692V313.276C226.679 320.652 235.059 326.972 249.119 328.448C250.703 328.548 252.279 328.66 253.859 328.66H270.927C271.559 328.66 272.191 328.66 272.667 328.76C277.883 329.18 280.091 330.132 281.675 332.024C282.081 332.399 282.403 332.856 282.621 333.364C282.838 333.872 282.945 334.42 282.935 334.972V344.56C282.935 345.716 282.147 347.192 280.567 348.456C279.147 349.72 276.775 350.564 273.615 350.776L271.875 350.88H226.523V361.832ZM402.047 342.768C402.047 354.036 410.423 360.356 427.327 361.624C428.907 361.728 430.487 361.832 432.067 361.832H474.891V350.88H431.755C422.115 350.88 418.483 348.456 418.483 342.66V285.988H402.051V342.768H402.047ZM310.015 343.336V304.276C310.015 294.356 316.983 288.336 330.759 286.436C332.227 286.226 333.708 286.12 335.191 286.12H366.387C367.971 286.12 369.395 286.224 370.975 286.436C384.751 288.336 391.723 294.352 391.723 304.276V343.336C391.723 351.392 388.763 355.696 381.943 358.504L398.135 373.116H379.051L365.955 361.292L352.771 362.128H335.191C331.926 362.107 328.678 361.646 325.535 360.756C315.083 357.908 310.015 352.416 310.015 343.336V343.336ZM327.751 342.388C327.751 342.916 327.907 343.448 328.067 344.08C329.015 348.62 333.295 351.152 339.783 351.152H354.711L340.999 338.772H360.083L372.039 349.572C374.247 348.392 375.695 346.6 376.203 344.292C376.359 343.764 376.359 343.236 376.359 342.708V305.236C376.359 304.816 376.359 304.284 376.203 303.756C375.251 299.532 370.975 297.108 364.643 297.108H339.779C332.499 297.108 327.747 300.276 327.747 305.236V342.388H327.751Z" fill="#E48E00"/>
<path d="M489.344 267.808C479.244 267.532 471.528 268.472 464.928 271.252C463.052 272.044 460.064 272.064 459.76 274.412C460.788 275.496 460.948 277.108 461.768 278.436C463.344 280.984 466.004 284.4 468.376 286.188C470.964 288.144 473.636 290.24 476.42 291.936C481.36 294.952 486.88 296.672 491.644 299.688C494.448 301.472 497.232 303.712 499.972 305.724C501.328 306.712 502.232 308.26 503.996 308.88V308.596C503.072 307.42 502.832 305.804 501.984 304.572L498.248 300.836C494.596 295.988 489.964 291.736 485.032 288.2C481.104 285.38 472.312 281.568 470.672 276.996L470.384 276.712C473.168 276.396 476.432 275.388 479 274.7C483.32 273.54 487.18 273.84 491.64 272.688L497.672 270.96V269.816C495.42 267.504 493.808 264.44 491.352 262.348C484.924 256.872 477.9 251.4 470.672 246.832C466.664 244.304 461.708 242.66 457.456 240.516C456.032 239.792 453.52 239.42 452.572 238.216C450.336 235.372 449.124 231.768 447.4 228.452C443.718 221.288 440.269 214.007 437.06 206.62C434.884 201.64 433.46 196.728 430.744 192.26C417.7 170.816 403.66 157.872 381.912 145.152C377.284 142.444 371.712 141.38 365.828 139.984L356.348 139.408C354.424 138.604 352.416 136.244 350.604 135.1C343.396 130.548 324.916 120.648 319.58 133.668C316.212 141.884 324.62 149.9 327.624 154.064C329.732 156.984 332.436 160.256 333.944 163.54C334.936 165.7 335.104 167.864 335.956 170.148C338.04 175.772 339.86 181.896 342.56 187.092C343.924 189.724 345.432 192.496 347.156 194.848C348.212 196.288 350.028 196.928 350.312 199.156C348.54 201.636 348.436 205.492 347.44 208.632C342.952 222.788 344.644 240.384 351.176 250.86C353.18 254.08 357.9 260.976 364.388 258.328C370.064 256.016 368.8 248.852 370.424 242.528C370.792 241.1 370.564 240.044 371.284 239.084V239.372L376.456 249.712C380.284 255.876 387.072 262.312 392.828 266.66C395.812 268.912 398.164 272.812 402.02 274.128V273.836H401.736C400.984 272.672 399.82 272.192 398.86 271.252C396.612 269.048 394.112 266.312 392.256 263.784C387.02 256.68 382.396 248.9 378.18 240.804C376.168 236.94 374.42 232.676 372.724 228.74C372.068 227.224 372.076 224.928 370.716 224.148C368.852 227.028 366.12 229.36 364.68 232.764C362.384 238.204 362.088 244.84 361.236 251.72L360.66 252.004C356.656 251.04 355.252 246.92 353.764 243.388C350.004 234.456 349.304 220.068 352.616 209.784C353.472 207.12 357.34 198.74 355.772 196.28C355.024 193.828 352.556 192.412 351.18 190.532C349.374 188.016 347.834 185.321 346.584 182.488C343.504 175.524 342.068 167.704 338.832 160.66C337.28 157.292 334.664 153.888 332.512 150.896C330.132 147.576 327.464 145.136 325.616 141.128C324.96 139.704 324.068 137.42 325.04 135.956C325.348 134.968 325.792 134.556 326.768 134.232C328.432 132.948 333.072 134.66 334.808 135.38C339.416 137.296 343.26 139.116 347.164 141.7C349.036 142.944 350.928 145.344 353.196 146.008H355.78C359.824 146.936 364.356 146.292 368.132 147.44C374.812 149.472 380.796 152.628 386.228 156.06C402.784 166.516 416.316 181.396 425.58 199.148C427.068 202.008 427.716 204.732 429.024 207.764C431.672 213.876 435.008 220.168 437.64 226.148C440.268 232.112 442.832 238.132 446.548 243.096C448.5 245.704 456.044 247.104 459.472 248.552C461.876 249.568 465.812 250.628 468.088 251.996C472.436 254.62 476.652 257.744 480.728 260.616C482.764 262.064 489.032 265.212 489.344 267.808V267.808ZM360.948 158.372C359.206 158.343 357.468 158.537 355.776 158.948V159.232H356.064C357.068 161.3 358.84 162.628 360.084 164.404L362.96 170.436L363.244 170.152C365.024 168.9 365.836 166.896 365.828 163.832C365.112 163.08 365.008 162.14 364.392 161.248C363.576 160.048 361.984 159.376 360.948 158.372V158.372Z" fill="#00618A"/>
</svg>
