<svg width="512" height="512" viewBox="0 0 512 512" fill="none" xmlns="http://www.w3.org/2000/svg">
<path d="M120.8 183.6H217.2V191.2H129.6V248.8H212V256.4H129.6V319.6H218.4V327.2H120.8V183.6ZM226 183.6H236.4L282 246.8L328 183.6L391.2 103.6L287.2 253.6L340.8 327.2H330L281.6 260L232.8 327.2H222.4L276.4 253.6L226 183.6V183.6ZM344.8 191.2V183.6H454.8V191.2H404V327.2H395.2V191.2H344.8ZM0 183.6H10.8L163.6 410.8L100.4 327.2L9.2 194.4L8.8 327.2H0V183.6ZM454 317.2C456 317.2 457.2 316 457.2 314C457.2 312 456 310.8 454 310.8C452 310.8 450.8 312 450.8 314C450.8 316 452.4 317.2 454 317.2ZM462.8 308.8C462.8 314 466.8 317.6 472.4 317.6C478.4 317.6 482 314 482 307.6V285.6H477.2V307.6C477.2 311.2 475.6 312.8 472.4 312.8C469.6 312.8 467.6 311.2 467.6 308.4H462.8V308.8ZM488 308.4C488.4 314 492.8 317.6 500 317.6C507.2 317.6 512 314 512 308C512 303.2 509.2 300.8 503.2 299.2L499.6 298.4C495.6 297.6 494 296 494 294C494 291.2 496.4 289.2 500.4 289.2C504 289.2 506.4 290.8 506.8 294H511.6C511.2 288.8 506.8 285.2 500.4 285.2C493.6 285.2 489.2 288.8 489.2 294.4C489.2 298.8 491.6 301.6 497.2 302.8L501.2 303.6C505.2 304.4 507.2 306 507.2 308.4C507.2 311.2 504.4 313.2 500.4 313.2C496.4 313.2 493.2 311.2 492.8 308.4H488V308.4Z" fill="black"/>
</svg>
