<svg width="512" height="512" viewBox="0 0 512 512" fill="none" xmlns="http://www.w3.org/2000/svg">
<path d="M457.299 322.996C456.139 322.996 454.987 322.692 453.971 322.1L443.371 315.828C441.787 314.944 442.559 314.628 443.083 314.448C445.195 313.712 445.623 313.54 447.875 312.268C448.111 312.136 448.419 312.184 448.663 312.328L456.803 317.164C456.954 317.245 457.123 317.287 457.295 317.287C457.466 317.287 457.635 317.245 457.787 317.164L489.535 298.84C489.684 298.752 489.808 298.626 489.893 298.475C489.979 298.324 490.024 298.154 490.023 297.98V261.34C490.023 261.164 489.978 260.991 489.891 260.838C489.805 260.684 489.681 260.556 489.531 260.464L457.795 242.156C457.645 242.073 457.476 242.03 457.305 242.03C457.133 242.03 456.965 242.073 456.815 242.156L425.083 260.468C424.932 260.559 424.807 260.687 424.72 260.839C424.632 260.992 424.585 261.164 424.583 261.34V297.98C424.583 298.332 424.779 298.664 425.083 298.828L433.779 303.856C438.499 306.212 441.391 303.436 441.391 300.644V264.464C441.391 263.956 441.803 263.552 442.311 263.552H446.339C446.839 263.552 447.255 263.956 447.255 264.464V300.644C447.255 306.94 443.827 310.552 437.855 310.552C436.019 310.552 434.575 310.552 430.543 308.568L422.219 303.776C421.206 303.186 420.366 302.34 419.782 301.324C419.198 300.308 418.891 299.156 418.891 297.984V261.344C418.891 258.964 420.159 256.744 422.219 255.56L453.967 237.212C454.99 236.655 456.136 236.363 457.301 236.363C458.465 236.363 459.612 236.655 460.635 237.212L492.383 255.56C494.439 256.748 495.715 258.968 495.715 261.344V297.984C495.713 299.156 495.404 300.308 494.82 301.324C494.235 302.34 493.395 303.185 492.383 303.776L460.635 322.104C459.621 322.692 458.47 323 457.299 322.996ZM467.111 297.752C453.211 297.752 450.303 291.372 450.303 286.024C450.304 285.781 450.401 285.548 450.573 285.376C450.746 285.204 450.979 285.108 451.223 285.108H455.327C455.546 285.107 455.759 285.185 455.926 285.327C456.093 285.47 456.204 285.667 456.239 285.884C456.855 290.064 458.707 292.172 467.111 292.172C473.795 292.172 476.643 290.66 476.643 287.108C476.643 285.06 475.835 283.544 465.443 282.524C456.755 281.664 451.383 279.748 451.383 272.792C451.383 266.388 456.783 262.564 465.831 262.564C476.003 262.564 481.035 266.096 481.671 273.672C481.681 273.8 481.664 273.928 481.623 274.049C481.582 274.17 481.516 274.281 481.431 274.376C481.344 274.467 481.24 274.54 481.124 274.59C481.009 274.64 480.884 274.667 480.759 274.668H476.635C476.427 274.668 476.225 274.598 476.062 274.467C475.9 274.337 475.787 274.155 475.743 273.952C474.751 269.552 472.351 268.148 465.827 268.148C458.527 268.148 457.679 270.696 457.679 272.596C457.679 274.904 458.679 275.576 468.539 276.88C478.295 278.172 482.931 279.996 482.931 286.856C482.935 293.788 477.167 297.752 467.111 297.752" fill="#83CD29"/>
<path d="M391.931 273.72C393.183 272.988 393.955 271.652 393.955 270.2V260.784C393.955 259.336 393.187 258 391.931 257.268L358.475 237.844C357.856 237.485 357.154 237.294 356.438 237.293C355.723 237.292 355.019 237.479 354.399 237.836L320.735 257.272C320.118 257.63 319.605 258.143 319.249 258.761C318.892 259.378 318.704 260.079 318.703 260.792V299.656C318.703 301.116 319.487 302.468 320.759 303.192L354.211 322.252C355.443 322.96 356.955 322.964 358.199 322.276L378.431 311.028C378.746 310.854 379.009 310.598 379.193 310.288C379.377 309.979 379.475 309.626 379.477 309.265C379.48 308.905 379.386 308.551 379.207 308.238C379.027 307.926 378.768 307.667 378.455 307.488L344.583 288.048C344.272 287.871 344.014 287.615 343.834 287.306C343.654 286.997 343.559 286.646 343.559 286.288V274.104C343.559 273.376 343.947 272.708 344.575 272.348L355.123 266.268C355.431 266.09 355.781 265.995 356.137 265.995C356.493 265.995 356.843 266.09 357.151 266.268L367.699 272.348C368.008 272.526 368.266 272.781 368.445 273.089C368.624 273.398 368.718 273.748 368.719 274.104V283.688C368.717 284.047 368.81 284.399 368.988 284.71C369.167 285.021 369.424 285.279 369.735 285.458C370.046 285.636 370.398 285.73 370.756 285.728C371.115 285.727 371.466 285.63 371.775 285.448L391.931 273.72" fill="#404137"/>
<path d="M355.934 271.896C356.053 271.83 356.187 271.795 356.324 271.795C356.46 271.795 356.595 271.83 356.714 271.896L363.174 275.628C363.414 275.768 363.562 276.028 363.562 276.304V283.764C363.562 284.044 363.414 284.3 363.174 284.44L356.714 288.168C356.595 288.237 356.461 288.274 356.324 288.274C356.187 288.274 356.052 288.237 355.934 288.168L349.478 284.44C349.359 284.372 349.259 284.274 349.191 284.155C349.122 284.037 349.086 283.902 349.086 283.764V276.304C349.086 276.028 349.234 275.768 349.478 275.628L355.934 271.896Z" fill="#83CD29"/>
<path d="M268.334 287.415C268.334 287.775 268.142 288.111 267.826 288.295L256.266 294.959C256.112 295.049 255.936 295.097 255.758 295.097C255.579 295.097 255.404 295.049 255.25 294.959L243.69 288.295C243.535 288.206 243.407 288.077 243.318 287.923C243.229 287.768 243.182 287.593 243.182 287.415V274.063C243.182 273.703 243.378 273.363 243.69 273.179L255.25 266.507C255.404 266.415 255.58 266.366 255.76 266.366C255.939 266.366 256.115 266.415 256.27 266.507L267.834 273.179C267.987 273.27 268.114 273.4 268.202 273.555C268.29 273.71 268.337 273.885 268.338 274.063V287.415H268.334ZM271.458 188.551C271.148 188.382 270.799 188.296 270.446 188.301C270.093 188.306 269.747 188.403 269.442 188.582C269.138 188.761 268.885 189.016 268.708 189.322C268.531 189.627 268.437 189.974 268.434 190.327V241.987C268.433 242.236 268.367 242.481 268.243 242.697C268.118 242.913 267.94 243.093 267.726 243.219C267.509 243.343 267.263 243.408 267.014 243.408C266.764 243.408 266.518 243.343 266.302 243.219L257.87 238.359C257.252 238.004 256.552 237.816 255.84 237.816C255.127 237.816 254.427 238.004 253.81 238.359L220.138 257.791C219.519 258.148 219.005 258.662 218.648 259.28C218.29 259.899 218.102 260.601 218.102 261.315V300.191C218.102 301.643 218.878 302.983 220.134 303.715L253.806 323.159C255.062 323.887 256.614 323.887 257.874 323.159L291.554 303.715C292.171 303.357 292.684 302.843 293.04 302.224C293.397 301.606 293.585 300.905 293.586 300.191V203.283C293.586 201.811 292.786 200.451 291.502 199.731L271.458 188.551Z" fill="#404137"/>
<path d="M152.95 237.628C153.567 237.27 154.268 237.082 154.982 237.082C155.695 237.082 156.396 237.27 157.014 237.628L190.686 257.056C191.942 257.784 192.718 259.128 192.718 260.58V299.468C192.718 300.92 191.942 302.264 190.686 302.992L157.018 322.436C156.399 322.792 155.698 322.979 154.984 322.979C154.27 322.979 153.569 322.792 152.95 322.436L119.29 302.992C118.672 302.633 118.16 302.119 117.803 301.501C117.447 300.883 117.259 300.182 117.258 299.468V260.576C117.258 259.128 118.034 257.784 119.29 257.056L152.95 237.628" fill="#83CD29"/>
<path d="M91.7176 260.256C91.7176 258.792 90.9496 257.448 89.6856 256.724L56.0256 237.352C55.4603 237.025 54.8227 236.842 54.1696 236.82H53.8216C53.1686 236.842 52.5311 237.025 51.9656 237.352L18.3016 256.724C17.6823 257.083 17.1682 257.598 16.8109 258.218C16.4535 258.838 16.2655 259.541 16.2656 260.256L16.3376 312.416C16.3376 313.144 16.7176 313.82 17.3536 314.172C17.6582 314.357 18.0075 314.455 18.3636 314.455C18.7198 314.455 19.0691 314.357 19.3736 314.172L39.3736 302.716C40.6376 301.964 41.4096 300.64 41.4096 299.188V274.82C41.4096 273.364 42.1776 272.024 43.4376 271.296L51.9576 266.392C52.5734 266.03 53.2754 265.841 53.9896 265.844C54.6856 265.844 55.3976 266.02 56.0176 266.392L64.5296 271.296C65.7896 272.024 66.5656 273.364 66.5656 274.82V299.188C66.5656 300.64 67.3456 301.972 68.6016 302.716L88.6016 314.172C88.91 314.349 89.2593 314.441 89.6145 314.44C89.9697 314.439 90.3184 314.345 90.626 314.168C90.9336 313.99 91.1892 313.735 91.3674 313.427C91.5456 313.12 91.6402 312.771 91.6416 312.416L91.7176 260.256" fill="#404137"/>
</svg>
