<svg width="512" height="512" viewBox="0 0 512 512" fill="none" xmlns="http://www.w3.org/2000/svg">
<path d="M256.001 132.156C121.041 132.156 11.625 187.604 11.625 256C11.625 324.396 121.041 379.844 256.001 379.844C390.961 379.844 500.377 324.396 500.377 256C500.377 187.604 390.961 132.156 256.001 132.156ZM192.413 280.128C186.581 285.584 180.105 287.836 172.973 290.156C165.841 292.48 156.765 292 145.729 292H120.717L113.785 332H84.581L110.641 196H166.801C183.697 196 196.021 200.86 203.769 209.728C211.517 218.596 213.845 231.184 210.757 247.076C209.481 253.624 207.333 259.712 204.301 265.136C201.159 270.733 197.146 275.793 192.413 280.128V280.128ZM277.657 292L289.181 234.32C290.493 227.568 290.013 222.552 287.737 220.1C285.457 217.644 280.609 216 273.197 216H250.037L235.113 292H206.137L232.197 160H261.173L254.245 196H280.057C296.301 196 307.501 199.26 313.665 204.924C319.829 210.588 321.677 218.348 319.213 231.036L307.089 292H277.657ZM438.693 247.288C437.421 253.836 435.269 259.82 432.241 265.24C429.209 270.668 425.249 275.632 420.357 280.128C414.525 285.584 408.045 287.836 400.917 290.156C393.789 292.48 384.705 292 373.669 292H348.657L341.729 332H312.525L338.581 196H394.745C411.641 196 423.965 200.86 431.709 209.728C439.449 218.596 441.781 231.4 438.693 247.288V247.288ZM383.677 216H363.673L352.765 272H370.533C382.301 272 391.077 270.84 396.837 266.4C402.605 261.968 406.489 255.088 408.509 244.716C410.445 234.752 409.565 226.98 405.869 222.884C402.169 218.788 394.773 216 383.677 216V216ZM155.737 216H135.729L124.821 272H142.585C154.357 272 163.129 270.84 168.893 266.4C174.657 261.968 178.545 255.088 180.561 244.716C182.497 234.752 181.617 226.98 177.921 222.884C174.225 218.788 166.833 216 155.737 216Z" fill="#6181B6"/>
</svg>
