<svg width="512" height="512" viewBox="0 0 512 512" fill="none" xmlns="http://www.w3.org/2000/svg">
<path fill-rule="evenodd" clip-rule="evenodd" d="M253.64 400.876C260.808 406.804 269.212 409.332 278.284 409.8C282.036 409.996 285.896 409.812 289.588 409.14C295.444 408.076 301.284 406.74 306.98 405.024C318.58 401.524 328.604 395.476 336.088 385.708C340.352 380.14 343.852 374.12 346.1 367.464C347.956 361.972 349.7 356.424 351.088 350.804C352.184 346.376 352.728 341.804 353.392 337.28C353.836 334.288 354.104 331.264 354.38 328.244C354.828 323.344 355.296 318.452 355.62 313.54C355.848 310.124 355.84 306.692 355.972 303.272C356.016 302.228 356.184 301.192 356.284 300.156C356.368 299.192 356.856 298.86 357.84 298.876C361.296 298.928 364.76 299.016 368.212 298.86C372.08 298.688 375.976 298.52 379.784 297.884C385.203 296.977 390.579 295.829 395.896 294.444C402.168 292.8 407.924 289.86 413.468 286.516C419.916 282.616 425.804 278.044 430.568 272.152C434.724 267.024 436.692 261.08 435.688 254.596C434.232 245.176 426.316 239.004 417.112 238.584C413.776 238.432 410.392 238.784 407.072 239.204C403.052 239.716 399.092 240.62 395.084 241.216C392.316 241.632 389.512 241.816 386.752 242.104L386.676 241.744C391.836 231.996 397.212 222.36 402.092 212.48C405.84 204.896 409.04 197.044 412.348 189.244C417.828 176.332 422.2 163.024 425.824 149.492C429.292 136.54 432.26 123.448 433.2 110.008C433.576 104.644 433.836 99.256 433.8 93.884C433.776 89.596 433.312 85.304 432.884 81.032C432.396 76.136 430.916 71.496 428.868 67.032C426.172 61.144 421.984 56.316 417.58 51.732C414.056 48.06 410.176 44.716 406.332 41.372C400.848 36.604 394.68 32.792 388.28 29.412C381.025 25.5586 373.339 22.5778 365.384 20.532C360.536 19.3097 355.657 18.2146 350.752 17.248C349.008 16.896 347.248 16 345.492 16H312.42C311.224 16 310.04 16.784 308.836 16.916C300.921 17.7799 293.105 19.3939 285.496 21.736C282.656 22.612 280.064 22.1 277.364 21.848C275.292 21.656 273.256 21.124 271.184 21.02C263.3 20.628 255.408 20.06 247.52 20.144C239.968 20.224 232.492 21.472 225.184 23.544C219.068 25.288 213.08 27.404 207.592 30.624C205.248 32 203.384 31.74 200.956 31.044C192.801 28.6552 184.576 26.5155 176.292 24.628C171.128 23.472 165.812 22.888 160.536 22.344C155.472 21.8181 150.389 21.5018 145.3 21.396C140.332 21.288 135.332 21.292 130.384 21.732C122.508 22.432 114.784 24.032 107.272 26.616C98.9911 29.4471 91.2536 33.6689 84.3917 39.1C77.3917 44.64 71.7757 51.396 67.2677 59.12C62.5117 67.268 59.2437 75.992 57.2197 85.148C56.1197 90.112 56.5237 95.216 55.7677 100.256C55.5357 101.816 56.0037 103.384 56.0037 104.952V126.892C56.0037 128.348 55.5757 129.808 55.7597 131.272C56.2117 134.788 56.0557 138.332 56.6517 141.824C57.5877 147.352 58.4317 152.86 59.5677 158.348C61.1557 166.016 62.6717 173.676 64.4317 181.308C65.7117 186.864 67.0997 192.388 68.6237 197.88C70.9437 206.272 73.2077 214.676 75.8357 222.968C78.2797 230.676 81.0637 238.272 83.8437 245.872C87.6529 256.381 92.3221 266.558 97.8037 276.3C102.584 284.744 108.036 292.652 115.356 299.152C120.184 303.44 125.548 306.732 131.792 308.38C136.669 309.675 141.781 309.818 146.724 308.796C152.453 307.632 157.805 305.069 162.304 301.336C162.832 300.908 163.404 300.576 164.032 301.368C166.408 304.376 169.584 306.384 172.908 308.116C181.876 312.796 191.648 314.2 201.572 314.768C203.98 314.904 206.404 314.56 208.824 314.496C213.548 314.364 218.132 313.444 222.64 312.14C225.008 311.456 227.316 310.584 229.724 309.776C229.848 312.34 230.008 314.804 230.088 317.272L230.42 330.724C230.484 332.772 230.564 334.82 230.752 336.86C231.24 342.116 231.716 347.372 232.344 352.612C232.776 356.224 233.232 359.86 234.08 363.388C235.784 370.498 238.116 377.442 241.048 384.14C243.854 390.641 248.171 396.378 253.64 400.876V400.876ZM239.276 333.804C238.992 327.488 238.78 321.169 238.64 314.848C238.472 307.08 238.416 299.308 238.308 291.54L238.288 291.244C234.34 293.616 230.448 296.208 226.332 298.348C221.504 300.856 216.264 302.308 210.836 302.72C206.584 303.04 202.268 303.332 198.036 302.996C191.092 302.432 184.148 301.348 177.932 297.924C175.412 296.536 172.78 294.844 171.04 292.632C166.876 287.316 168.872 280.6 175.152 277.368C179.492 275.128 184.228 274.196 188.932 273.108C193.026 272.18 197.078 271.072 201.076 269.788C205.02 268.496 207.508 265.296 209.968 262.156L213.864 257.148L209.18 256.66C204.532 256.228 200.096 254.944 195.856 253.064C192.232 251.46 192.176 251.284 189.512 254.172C185.072 258.992 180.752 263.932 176.396 268.836C173.192 272.444 170.012 276.072 166.816 279.692C163.664 283.272 160.704 287.052 157.3 290.38C152.252 295.324 146.164 298.296 138.9 297.96C134.24 297.744 129.976 296.112 126.136 293.444C118.22 287.932 112.888 280.212 108.028 272.112C101.808 261.728 97.0277 250.668 92.9437 239.308C90.1157 231.452 87.2717 223.592 84.8077 215.624C82.1237 206.964 79.7677 198.204 77.4517 189.436C75.6997 182.824 74.1477 176.156 72.6677 169.476C70.9639 161.883 69.3877 154.262 67.9397 146.616C66.9757 141.452 66.4197 136.212 65.6397 131.016C64.5877 124.004 64.3957 116.936 64.7797 109.9C65.1197 103.56 66.0277 97.24 66.9317 90.944C68.1837 82.232 71.0557 74.012 75.1837 66.248C77.7301 61.5168 80.851 57.1182 84.4757 53.152C90.4357 46.556 97.6477 41.792 105.672 38.212C111.276 35.712 117.2 34.212 123.236 33.032C132.196 31.288 141.236 31.36 150.276 31.544C154.228 31.628 158.168 32.344 162.116 32.74C170.62 33.584 178.952 35.376 187.18 37.58C193.18 39.188 199.056 41.276 205 43.084C205.592 43.264 206.468 43.248 206.96 42.932C215.02 37.668 223.824 34.196 233.196 32.208C236.752 31.456 240.424 31.124 244.06 30.892C248.476 30.616 252.936 30.352 257.344 30.612C262.644 30.916 267.928 31.696 273.196 32.416C275.756 32.768 278.252 33.652 280.812 33.892C282.044 34.008 283.344 33.116 284.64 32.812C291.256 31.28 297.844 29.58 304.52 28.376C309.488 27.48 314.568 27.056 319.616 26.768C325.256 26.444 330.928 26.208 336.56 26.48C343.68 26.824 350.748 27.836 357.724 29.46C366.372 31.472 374.66 34.392 382.544 38.448C388.436 41.484 394.032 44.996 399.076 49.316C402.38 52.152 405.764 54.948 408.744 58.108C412.424 62.004 416.176 65.896 418.488 70.884C420.228 74.648 421.468 78.544 421.812 82.66C422.236 87.784 422.752 92.924 422.708 98.056C422.664 102.96 421.992 107.86 421.52 112.756C420.436 123.908 418.016 134.82 415.068 145.588C412.608 154.482 409.821 163.283 406.712 171.972C403.876 179.984 400.6 187.848 397.292 195.684C394.853 201.486 392.206 207.197 389.356 212.808C383.94 223.416 378.308 233.916 371.792 243.916C370.668 245.64 369.6 247.408 368.504 249.172C371.348 251.088 374.568 251.764 377.808 252.116C380.892 252.448 384.036 252.652 387.116 252.42C392.048 252.052 396.964 251.348 401.868 250.664C406.724 249.984 411.48 248.604 416.472 248.968C421.448 249.332 425.016 253.116 424.676 257.78C424.46 260.732 423.104 263.264 421.144 265.428C411.884 275.644 400.26 281.836 386.964 284.888C381.912 286.048 376.704 286.644 371.532 287.128C367.115 287.518 362.678 287.622 358.248 287.44C355 287.32 351.78 286.576 348.46 286.096C348.124 289.132 347.808 292.296 347.424 295.448L345.876 307.54C345.408 311.372 345.044 315.22 344.56 319.052C344.088 322.772 343.5 326.472 343.004 330.188C342.544 333.648 342.204 337.128 341.684 340.584C340.896 345.88 340.14 351.188 339.104 356.444C337.864 362.724 335.968 368.804 332.86 374.472C329.076 381.388 323.712 386.656 316.88 390.556C309.84 394.576 302.14 396.668 294.344 398.42C288.816 399.664 283.132 399.864 277.536 399.356C267.836 398.48 259.556 394.332 253.296 386.808C247.324 379.628 243.28 371.404 241.836 362.088C241.156 357.655 240.628 353.201 240.252 348.732C239.819 343.764 239.493 338.786 239.276 333.804V333.804ZM250.18 269.988C250.24 273.308 249.896 276.628 249.912 279.948C249.98 295.4 250.092 310.856 250.224 326.312C250.248 328.836 250.372 331.368 250.552 333.888C250.932 339.168 251.308 344.452 251.82 349.716C252.188 353.456 252.688 357.184 253.276 360.896C254.116 366.148 256.508 370.828 259.22 375.304C261.556 379.152 264.6 382.416 268.604 384.672C275.412 388.5 282.736 388.82 290.12 387.412C295.108 386.464 300.012 384.932 304.852 383.352C309.615 381.824 313.965 379.223 317.564 375.748C320.96 372.46 323.368 368.448 324.992 364.02C328.14 355.436 329.128 346.392 330.428 337.424C330.916 334.064 331.34 330.696 331.784 327.332C332.292 323.504 332.804 319.68 333.292 315.852C333.66 312.996 333.988 310.144 334.336 307.292C334.836 303.196 335.36 299.104 335.836 295.008C336.2 291.84 336.504 288.66 336.832 285.484C337.248 281.424 337.692 277.376 338.056 273.308C338.328 270.228 338.216 267.088 338.764 264.06C339.768 258.512 342.392 253.792 347.312 250.736C349.368 249.464 351.696 248.624 353.976 247.544L353.584 246.948C351.476 244.212 349.316 241.52 347.248 238.752C344 234.408 341.664 229.564 339.316 224.696C337.092 220.08 334.372 215.712 332.032 211.148C327.948 203.188 323.788 195.248 320.024 187.14C315.292 176.94 311.564 166.388 310.392 155.092C309.892 150.316 309.764 145.54 310.736 140.808C312.284 133.248 316.228 127.336 322.868 123.28C329.028 119.52 335.888 118.304 342.916 117.924C347.276 117.688 351.664 117.88 356.188 117.88L356.04 117.116C353.224 111.228 350.596 105.24 347.512 99.496C343.168 91.384 337.6 84.072 331.408 77.284C326.838 72.2367 321.818 67.6175 316.408 63.484C311.056 59.432 305.416 55.812 299.396 52.856C292.244 49.2987 284.691 46.6128 276.9 44.856C269.36 43.184 261.78 42.16 254.044 42.076C247.452 42.004 240.9 42.308 234.476 43.792C224.78 46.036 215.912 50.028 208.204 56.492C203.934 60.0706 200.12 64.1599 196.848 68.668C192.98 73.968 189.868 79.704 187.204 85.708C183.548 93.952 181.04 102.524 179.32 111.34C178.464 115.74 177.792 120.168 177.108 124.596C176.868 126.152 176.852 127.732 176.708 129.512L179.636 127.988L182.492 126.708C192.16 122.288 202.172 119.444 212.932 119.768C217.508 119.904 221.876 120.812 225.948 122.816C233.748 126.664 238.308 133.204 240.292 141.476C241.66 147.188 242.6 153.012 243.512 158.824C244.224 163.36 244.956 167.944 245.036 172.52C245.152 179.208 244.816 185.912 244.452 192.596C244.14 198.28 242.964 203.883 240.964 209.212C237.348 218.876 233.316 228.384 229.552 237.992C228.308 241.168 227.352 244.452 226.18 247.944L230.932 247.948C231.508 247.96 232.096 247.976 232.652 248.108C236.976 249.128 240.732 251.088 243.808 254.416C247.92 258.832 250.072 264 250.18 269.988V269.988ZM167.592 224.168C165.141 218.4 163.662 212.267 163.216 206.016C162.8 200.12 163.5 194.256 164.108 188.384C164.692 182.7 165.188 176.988 165.356 171.284C165.64 161.896 165.008 152.532 164.56 143.152C164.292 137.568 164.94 131.916 165.436 126.32C165.884 121.28 166.444 116.228 167.4 111.26C168.996 102.924 171.12 94.708 174.14 86.744C177 79.192 180.296 71.844 184.936 65.224C188.124 60.68 191.732 56.444 195.2 52.004L194.168 51.636C182.876 48.052 171.396 45.244 159.584 44.024C154.004 43.444 148.4 43.108 142.804 42.772C141.084 42.672 139.34 42.904 137.616 43.068C133.348 43.48 129.024 43.64 124.824 44.44C117.676 45.8 110.816 48.088 104.468 51.812C98.8498 55.1177 93.9246 59.4792 89.9637 64.656C85.5357 70.38 82.5477 76.852 80.4077 83.748C77.8797 91.888 76.6717 100.268 76.3477 108.72C76.0637 116.132 75.9237 123.584 77.2037 130.968C78.1517 136.46 78.7877 142.016 79.8357 147.492C81.2445 154.958 82.8263 162.391 84.5797 169.784C87.1117 180.36 89.6477 190.944 92.6517 201.392C95.5237 211.396 98.7597 221.312 102.28 231.112C105.152 239.108 108.476 246.956 111.976 254.696C114.256 259.74 117.016 264.596 119.912 269.316C122.988 274.332 126.492 279.092 131.236 282.732C137.232 287.324 141.868 288.04 147.964 282.996C150.572 280.84 152.776 278.168 155.048 275.628C158.652 271.596 162.132 267.444 165.724 263.392C170.296 258.236 174.924 253.132 179.52 247.992C180.492 246.908 181.432 245.788 182.376 244.692L180.804 243.32C175.137 237.906 170.64 231.388 167.592 224.168V224.168ZM340.956 70.556C344.715 74.923 348.281 79.4527 351.644 84.132C358.089 93.1698 363.276 103.041 367.064 113.476C368.744 118.096 370.088 122.76 369.488 127.812C369.072 131.352 369.1 134.94 368.792 138.5C368.532 141.46 368.06 144.404 367.68 147.356C367.104 151.804 366.272 156.244 366.024 160.712C365.784 164.968 366.036 169.264 366.304 173.524C366.572 177.856 367.156 182.168 367.552 186.488C368 191.396 368.608 196.292 368.744 201.208C368.856 205.24 368.496 209.292 368.148 213.324C367.701 218.155 366.527 222.891 364.668 227.372C363.376 230.548 361.836 233.62 360.384 236.796L360.968 237.412L361.856 238.1L362.756 236.5C370.309 224.615 377.02 212.215 382.84 199.392C386.571 191.115 390.11 182.753 393.456 174.312C398.671 161.191 402.885 147.694 406.06 133.936C407.5 127.76 408.604 121.488 409.58 115.216C410.344 110.312 410.976 105.352 411.12 100.404C411.268 95.156 410.98 89.868 410.496 84.636C410.132 80.684 409.156 76.708 406.684 73.488C402.7 68.316 398.404 63.372 393.12 59.456C388.668 56.164 384.228 52.776 379.456 50.008C371.884 45.612 363.688 42.692 355.124 40.7C346.76 38.752 338.296 37.912 329.776 37.732C324.752 37.624 319.704 38.164 314.692 38.64C310.148 39.064 305.632 39.792 301.06 40.392C305.968 43.152 310.812 45.608 315.372 48.5C324.972 54.58 333.58 61.896 340.956 70.556V70.556ZM216.236 240.808C219.336 230.888 223.564 221.408 227.656 211.88C230.98 204.148 232.792 196.008 233.396 187.64C233.696 183.516 233.616 179.34 233.412 175.204C233.213 170.602 232.791 166.013 232.148 161.452C231.288 155.636 230.312 149.816 228.936 144.108C227.444 137.932 223.684 133.628 217.236 132.04C213.312 131.076 209.408 131.116 205.436 131.744C195.744 133.268 186.872 136.84 178.608 142.072C176.944 143.124 176.024 143.976 176.316 146.356C176.924 151.412 177.056 156.548 177.032 161.648C177 168.868 176.692 176.088 176.42 183.304C176.332 185.652 175.992 187.996 175.736 190.336C175.352 193.92 174.604 197.5 174.628 201.08C174.652 204.768 175.028 208.54 175.924 212.112C178.768 223.44 184.784 232.704 194.652 239.244C200.72 243.268 207.432 245.292 214.804 245.68C215.292 243.988 215.744 242.392 216.236 240.808V240.808ZM204.652 143.652C203.352 140.928 204.096 138.668 207.104 137.62C207.84 137.368 208.592 137.088 209.352 137.016C210.404 136.912 211.464 136.988 212.524 136.988C216.344 137.012 220.016 137.544 223.164 139.968C225.188 141.528 225.732 143.588 224.42 145.716C222.56 148.728 219.732 150.24 216.252 150.528C210.776 150.98 206.932 148.428 204.652 143.652V143.652ZM356.552 142.656L357.796 131.756C357.976 130.3 357.212 129.9 355.988 129.864C352.136 129.76 348.288 129.62 344.436 129.556C340.1 129.476 335.872 130.172 331.856 131.82C327.4 133.656 324.008 136.592 322.62 141.444C321.604 145.019 321.284 148.756 321.676 152.452C322.217 158.171 323.512 163.793 325.528 169.172C328.224 176.344 331.04 183.512 334.412 190.384C338.976 199.684 344.136 208.692 348.984 217.852C350.276 220.296 351.372 222.852 352.72 225.704C355.442 220.03 356.928 213.843 357.08 207.552C357.212 202.348 356.8 197.132 356.496 191.928C356.308 188.744 355.856 185.576 355.548 182.4C355.12 177.976 354.464 173.548 354.36 169.112C354.26 164.6 354.58 160.064 354.964 155.556C355.324 151.244 356.036 146.96 356.552 142.656V142.656ZM347.876 139.16C346.444 143.108 343.388 145.34 339.42 145.992C335.724 146.604 332.484 145.24 330.076 142.288C328.36 140.188 329.016 137.704 331.588 136.28C334.54 134.648 337.784 134.236 341.612 133.988C342.656 134.176 344.216 134.34 345.704 134.76C347.86 135.368 348.66 137 347.876 139.16V139.16ZM233.484 260.772C231.372 259.044 228.572 258.944 226.564 260.84C224.068 263.2 221.872 265.896 219.676 268.552C217.144 271.624 214.76 274.816 211.496 277.196C206.74 280.656 201.184 282.088 195.608 283.444C191.176 284.524 186.72 285.528 182.276 286.56L182.22 287.136C183.54 287.744 184.816 288.508 186.196 288.944C192.976 291.088 199.876 292.16 207.044 291.552C212.212 291.108 217.14 289.98 221.808 287.768C228.236 284.724 233.184 279.896 237.388 274.288C238.092 273.352 238.412 271.968 238.492 270.76C238.776 266.496 236.612 263.324 233.484 260.772V260.772ZM357.264 258.924C353.94 260.04 351.236 261.74 350.432 265.336C349.884 267.768 349.684 270.284 349.472 272.776C349.432 273.216 349.98 274.024 350.396 274.136C352.956 274.812 355.532 275.608 358.148 275.844C361.368 276.136 364.64 276.044 367.88 275.884C371.376 275.708 374.896 275.48 378.344 274.904C386.46 273.536 394.32 271.32 401.296 266.712C403.816 265.052 406.304 263.356 408.808 261.668L408.6 261.312C405.932 261.708 403.272 262.192 400.592 262.476C395.136 263.06 389.676 263.676 384.2 263.992C381.556 264.144 378.876 263.636 376.212 263.42C371.74 263.056 367.372 262.064 363.592 259.672C361.412 258.296 359.588 258.144 357.264 258.924V258.924Z" fill="#336791"/>
<path d="M11.3438 412.736C17.0869 411.804 22.8976 411.352 28.7157 411.384C37.6557 411.384 44.2117 413.464 48.3717 417.208C52.2197 420.536 54.5077 425.632 54.5077 431.876C54.5077 438.22 52.6317 443.212 49.0957 446.852C44.3117 451.948 36.5117 454.548 27.6717 454.548C24.9677 454.548 22.4717 454.444 20.3957 453.924V482.008H11.3438V412.736V412.736ZM20.3957 446.536C22.3717 447.056 24.8677 447.264 27.8837 447.264C38.7997 447.264 45.4597 441.96 45.4597 432.288C45.4597 423.032 38.9077 418.56 28.9237 418.56C24.9717 418.56 21.9557 418.872 20.3957 419.288V446.536V446.536ZM109.316 456.416C109.316 475.032 96.4158 483.148 84.2478 483.148C70.6238 483.148 60.1197 473.164 60.1197 457.248C60.1197 440.4 71.1437 430.52 85.0797 430.52C99.5397 430.516 109.316 441.024 109.316 456.416V456.416ZM69.3797 456.936C69.3797 467.96 75.7238 476.28 84.6678 476.28C93.4038 476.28 99.9517 468.064 99.9517 456.728C99.9517 448.2 95.6917 437.384 84.8717 437.384C74.0517 437.384 69.3797 447.368 69.3797 456.936ZM119.608 472.64C122.312 474.408 127.096 476.28 131.672 476.28C138.328 476.28 141.448 472.952 141.448 468.792C141.448 464.424 138.852 462.032 132.088 459.536C123.04 456.312 118.776 451.32 118.776 445.288C118.776 437.176 125.328 430.52 136.144 430.52C141.24 430.52 145.716 431.976 148.524 433.64L146.236 440.296C143.14 438.388 139.575 437.38 135.94 437.384C130.532 437.384 127.516 440.504 127.516 444.248C127.516 448.408 130.536 450.28 137.088 452.776C145.824 456.104 150.296 460.472 150.296 467.96C150.296 476.8 143.432 483.04 131.472 483.04C125.96 483.04 120.864 481.688 117.328 479.608L119.608 472.64V472.64ZM173.068 417.204V431.66H186.168V438.628H173.068V465.772C173.068 472.012 174.832 475.548 179.932 475.548C181.719 475.574 183.503 475.364 185.236 474.924L185.652 481.788C183.888 482.516 181.076 483.036 177.544 483.036C173.28 483.036 169.844 481.684 167.66 479.188C165.064 476.484 164.124 472.012 164.124 466.084V438.628H156.324V431.66H164.124V419.596L173.068 417.204V417.204ZM239.212 431.664C239 435.304 238.796 439.36 238.796 445.496V474.72C238.796 486.264 236.508 493.336 231.62 497.708C226.732 502.284 219.66 503.74 213.316 503.74C207.284 503.74 200.628 502.284 196.568 499.58L198.856 492.612C202.184 494.692 207.384 496.564 213.624 496.564C222.984 496.564 229.848 491.676 229.848 478.988V473.372H229.64C226.832 478.052 221.424 481.796 213.624 481.796C201.144 481.796 192.2 471.188 192.2 457.248C192.2 440.192 203.328 430.52 214.872 430.52C223.612 430.52 228.396 435.096 230.58 439.256H230.788L231.204 431.664H239.212V431.664ZM229.748 451.528C229.748 449.968 229.644 448.616 229.228 447.368C227.564 442.064 223.092 437.696 216.436 437.696C207.696 437.696 201.46 445.08 201.46 456.728C201.46 466.608 206.452 474.824 216.332 474.824C221.948 474.824 227.044 471.288 229.02 465.464C229.54 463.904 229.752 462.136 229.752 460.576V451.528H229.748ZM253.352 447.368C253.352 441.44 253.248 436.344 252.936 431.664H260.948L261.256 441.544H261.672C263.96 434.784 269.472 430.52 275.608 430.52C276.648 430.52 277.372 430.624 278.204 430.832V439.464C277.18 439.241 276.135 439.136 275.088 439.152C268.64 439.152 264.06 444.04 262.816 450.904C262.559 452.311 262.42 453.737 262.4 455.168V482H253.352V447.368ZM291.42 458.496C291.628 470.872 299.528 475.968 308.68 475.968C315.236 475.968 319.184 474.824 322.616 473.368L324.176 479.92C320.952 481.376 315.44 483.04 307.432 483.04C291.936 483.04 282.68 472.848 282.68 457.664C282.68 442.48 291.624 430.516 306.288 430.516C322.72 430.516 327.088 444.972 327.088 454.228C327.088 456.1 326.88 457.556 326.776 458.492H291.42V458.496ZM318.252 451.944C318.352 446.12 315.856 437.072 305.564 437.072C296.308 437.072 292.252 445.6 291.52 451.944H318.252V451.944ZM337.488 470.976C342.391 473.921 347.992 475.501 353.712 475.552C362.968 475.552 368.376 470.664 368.376 463.592C368.376 457.04 364.632 453.296 355.168 449.656C343.728 445.6 336.656 439.672 336.656 429.792C336.656 418.872 345.704 410.76 359.328 410.76C366.504 410.76 371.704 412.424 374.824 414.192L372.328 421.576C368.236 419.376 363.661 418.232 359.016 418.248C349.448 418.248 345.808 423.968 345.808 428.752C345.808 435.304 350.068 438.528 359.744 442.272C371.6 446.852 377.632 452.568 377.632 462.864C377.632 473.68 369.624 483.04 353.088 483.04C346.328 483.04 338.944 481.064 335.196 478.568L337.488 470.976V470.976ZM447.832 492.296C438.791 489.923 429.841 487.217 421 484.184C419.544 483.664 418.088 483.144 416.736 483.144C400.096 482.52 385.848 470.248 385.848 447.68C385.848 425.216 399.576 410.76 418.504 410.76C437.536 410.76 449.916 425.528 449.916 446.224C449.916 464.216 441.596 475.76 429.948 479.816V480.232C436.916 482 444.508 483.664 450.436 484.704L447.832 492.296V492.296ZM440.344 446.64C440.344 432.6 433.068 418.14 418.192 418.14C402.904 418.14 395.416 432.284 395.52 447.472C395.416 462.344 403.632 475.76 417.776 475.76C432.236 475.76 440.344 462.656 440.344 446.64V446.64ZM461.66 411.904H470.712V474.408H500.664V482H461.66V411.904Z" fill="#336791"/>
</svg>
