<svg width="512" height="512" viewBox="0 0 512 512" fill="none" xmlns="http://www.w3.org/2000/svg">
<path d="M253.565 48.992C236.677 49.072 220.557 50.508 206.365 53.02C164.565 60.404 156.981 75.86 156.981 104.368V142.012H255.753V154.56H119.909C91.2048 154.56 66.0688 171.812 58.2048 204.644C49.1328 242.264 48.7328 265.744 58.2048 305.028C65.2248 334.272 81.9928 355.104 110.701 355.104H144.665V309.976C144.665 277.372 172.869 248.616 206.369 248.616H305.029C332.493 248.616 354.413 226 354.413 198.424V104.372C354.413 77.6 331.829 57.492 305.029 53.024C288.053 50.2 270.449 48.916 253.565 48.992V48.992ZM200.149 79.268C210.349 79.268 218.685 87.736 218.685 98.152C218.685 108.524 210.353 116.912 200.149 116.912C189.909 116.912 181.617 108.524 181.617 98.152C181.613 87.736 189.909 79.268 200.149 79.268V79.268Z" fill="url(#paint0_linear_1026_235)"/>
<path d="M366.725 154.561V198.425C366.725 232.425 337.893 261.045 305.021 261.045H206.361C179.337 261.045 156.977 284.177 156.977 311.241V405.301C156.977 432.065 180.249 447.813 206.361 455.489C237.625 464.677 267.609 466.341 305.021 455.489C329.885 448.285 354.405 433.797 354.405 405.301V367.653H255.749V355.101H403.797C432.501 355.101 443.205 335.081 453.189 305.025C463.501 274.085 463.057 244.329 453.189 204.641C446.093 176.061 432.545 154.557 403.797 154.557H366.725V154.561ZM311.233 392.749C321.477 392.749 329.769 401.137 329.769 411.517C329.769 421.925 321.473 430.393 311.233 430.393C301.033 430.393 292.701 421.925 292.701 411.517C292.701 401.137 301.033 392.749 311.233 392.749V392.749Z" fill="url(#paint1_linear_1026_235)"/>
<path opacity="0.444" d="M389.24 478.389C389.24 492.561 329.976 504.053 256.876 504.053C183.772 504.053 124.508 492.561 124.508 478.389C124.508 464.213 183.768 452.721 256.876 452.721C329.976 452.721 389.24 464.209 389.24 478.389Z" fill="url(#paint2_radial_1026_235)"/>
<defs>
<linearGradient id="paint0_linear_1026_235" x1="41.3483" y1="60.7625" x2="269.163" y2="255.042" gradientUnits="userSpaceOnUse">
<stop stop-color="#5A9FD4"/>
<stop offset="1" stop-color="#306998"/>
</linearGradient>
<linearGradient id="paint1_linear_1026_235" x1="354.872" y1="375.81" x2="273.174" y2="261.242" gradientUnits="userSpaceOnUse">
<stop stop-color="#FFD43B"/>
<stop offset="1" stop-color="#FFE873"/>
</linearGradient>
<radialGradient id="paint2_radial_1026_235" cx="0" cy="0" r="1" gradientUnits="userSpaceOnUse" gradientTransform="translate(256.341 477.654) rotate(-90) scale(25.6733 112.855)">
<stop stop-color="#B8B8B8" stop-opacity="0.498"/>
<stop offset="1" stop-color="#7F7F7F" stop-opacity="0"/>
</radialGradient>
</defs>
</svg>
