<svg width="512" height="512" viewBox="0 0 512 512" fill="none" xmlns="http://www.w3.org/2000/svg">
<path d="M351.445 130.103L326.553 154.994C366.087 194.528 366.087 260.418 326.553 299.952C287.019 339.486 221.129 339.486 183.06 298.488C143.526 258.954 143.526 193.064 183.06 153.53L247.485 89.1045L256.27 80.3192V32L159.632 128.638C105.456 182.814 105.456 269.203 159.632 321.915C213.808 374.627 300.197 376.091 352.909 321.915C405.621 269.203 405.621 184.279 351.445 130.103V130.103Z" fill="#EE4C2C"/>
<path d="M303.125 124.244C312.829 124.244 320.696 116.378 320.696 106.674C320.696 96.9696 312.829 89.103 303.125 89.103C293.421 89.103 285.555 96.9696 285.555 106.674C285.555 116.378 293.421 124.244 303.125 124.244Z" fill="#EE4C2C"/>
<path d="M112.333 429.333H103V453.666H96V384.666H113.333C131.333 384.666 140 393.666 140 405.999C140 421.333 129.333 429.333 112.333 429.333V429.333ZM113 391.666H103V423.333L112.667 423C125.667 422.666 132.667 417.666 132.667 406.999C133 396.999 125.667 391.666 113 391.666ZM171.667 453.333L167.667 464.333C163 476.666 158.334 480 151.334 480C147.667 480 144.667 479 141.667 477.666L143.667 471.333C146 472.666 148.667 473.666 151.334 473.666C155 473.666 158 471.666 161.667 462L165 453L145.334 403.333H152.667L168.334 445L184 403.333H191L171.667 453.333V453.333Z" fill="#EE4C2C"/>
<path d="M214.332 391.667V454H207.331V391.667H182.998V385H238.332V391.667H214.332ZM258.665 455C244.665 455 234.332 444.667 234.332 428.667C234.332 412.667 244.998 402 259.332 402C273.665 402 283.665 412.333 283.665 428.334C283.332 444.334 272.665 455 258.665 455ZM258.665 408.333C247.998 408.333 240.998 416.667 240.998 428.667C240.998 441 247.998 449.334 258.665 449.334C269.332 449.334 276.332 441 276.332 429C276.665 416.333 269.665 408.333 258.665 408.333V408.333ZM300.665 453.667H293.665V403.333L300.665 401.667V412.333C303.999 406 308.665 401.667 315.332 401.667C318.665 401.667 321.665 402.667 324.332 404L322.665 410.333C320.332 409 317.665 408 314.999 408C309.665 408 304.665 412 300.665 421V453.667V453.667ZM350.999 455C335.665 455 326.332 444 326.332 428.667C326.332 413 336.665 402 350.999 402C356.999 402 362.332 403.667 366.665 406.333L364.999 412.333C361.332 409.667 356.332 408.333 350.999 408.333C339.999 408.333 333.332 416.333 333.332 428.334C333.332 440.667 340.332 448.667 350.999 448.667C355.999 448.667 361.332 447 364.999 444.667L366.665 451C362.332 453.334 356.999 455 350.999 455ZM408.999 453.667V421C408.999 412 405.332 408.333 398.332 408.333C392.332 408.333 386.999 411.333 382.666 415.333V453.667H375.665V379.667L382.666 378V410C387.999 404.667 394.666 402 400.332 402C409.999 402 415.999 408.333 415.999 419.333V453.667H408.999Z" fill="#EE4C2C"/>
</svg>
