<svg width="512" height="512" viewBox="0 0 512 512" fill="none" xmlns="http://www.w3.org/2000/svg">
<path d="M255.998 301.6C281.183 301.6 301.598 281.185 301.598 256C301.598 230.816 281.183 210.4 255.998 210.4C230.814 210.4 210.398 230.816 210.398 256C210.398 281.185 230.814 301.6 255.998 301.6Z" fill="#61DAFB"/>
<path d="M429.202 180.8C420.402 177.6 411.202 174.4 401.602 171.6C404.002 162 406.002 152.4 407.602 143.2C416.002 90.4004 406.802 53.2004 381.202 38.8004C373.602 34.4004 365.202 32.4004 355.602 32.4004C327.602 32.4004 292.002 53.2004 256.002 88.0004C220.002 53.2004 184.402 32.4004 156.402 32.4004C146.802 32.4004 138.402 34.4004 130.802 38.8004C105.202 53.6004 96.0016 90.8004 104.402 143.2C106.002 152.4 108.002 162 110.402 171.6C100.802 174.4 91.6016 177.2 82.8016 180.8C32.8016 200 5.60156 226.4 5.60156 256C5.60156 285.6 33.2016 312 82.8016 331.2C91.6016 334.4 100.802 337.6 110.402 340.4C108.002 350 106.002 359.6 104.402 368.8C96.0016 421.6 105.202 458.8 130.802 473.2C138.402 477.6 146.802 479.6 156.402 479.6C184.802 479.6 220.402 458.8 256.002 424C292.002 458.8 327.602 479.6 355.602 479.6C365.202 479.6 373.602 477.6 381.202 473.2C406.802 458.4 416.002 421.2 407.602 368.8C406.002 359.6 404.002 350 401.602 340.4C411.202 337.6 420.402 334.8 429.202 331.2C479.202 312 506.402 285.6 506.402 256C506.402 226.4 479.202 200 429.202 180.8V180.8ZM370.002 58.8004C386.402 68.4004 392.002 98.0004 385.202 140C384.002 148.4 382.002 157.2 379.602 166.4C358.802 161.6 336.802 158.4 313.602 156.4C300.002 137.2 286.002 120 272.002 104.4C301.602 75.2004 331.602 55.2004 356.002 55.2004C361.202 55.2004 366.002 56.4004 370.002 58.8004V58.8004ZM325.202 296C318.002 308.8 309.602 321.6 300.802 334.4C286.002 335.6 271.202 336 256.002 336C240.402 336 225.602 335.6 211.202 334.4C202.402 321.6 194.402 308.8 187.202 296C179.602 282.8 172.402 269.2 166.002 256C172.402 242.8 179.602 229.2 187.202 216C194.402 203.2 202.802 190.4 211.602 177.6C226.402 176.4 241.202 176 256.402 176C272.002 176 286.802 176.4 301.202 177.6C310.002 190.4 318.002 203.2 325.202 216C332.802 229.2 340.002 242.8 346.402 256C339.602 269.2 332.802 282.4 325.202 296ZM358.402 282.8C364.402 296.8 369.202 310.4 373.602 324C360.002 327.2 345.602 329.6 330.402 331.6C335.202 324 340.402 316 344.802 307.6C349.602 299.2 354.002 290.8 358.402 282.8ZM256.002 391.2C246.402 380.8 237.202 369.6 228.402 358C237.602 358.4 246.802 358.8 256.002 358.8C265.202 358.8 274.402 358.4 283.602 358C274.802 369.6 265.602 380.8 256.002 391.2ZM181.602 331.2C166.402 329.2 152.002 326.8 138.402 323.6C142.802 310.4 147.602 296.4 153.602 282.4C158.002 290.4 162.402 298.8 167.202 306.8C172.002 315.6 176.802 323.2 181.602 331.2V331.2ZM153.602 229.2C147.602 215.2 142.802 201.6 138.402 188C152.002 184.8 166.402 182.4 181.602 180.4C176.802 188 171.602 196 167.202 204.4C162.402 212.8 158.002 221.2 153.602 229.2V229.2ZM256.002 120.8C265.602 131.2 274.802 142.4 283.602 154C274.402 153.6 265.202 153.2 256.002 153.2C246.802 153.2 237.602 153.6 228.402 154C237.202 142.4 246.402 131.2 256.002 120.8ZM344.802 204.8L330.402 180.8C345.602 182.8 360.002 185.2 373.602 188.4C369.202 201.6 364.402 215.6 358.402 229.6C354.002 221.2 349.602 212.8 344.802 204.8ZM126.802 140C120.002 98.0004 125.602 68.4004 142.002 58.8004C146.002 56.4004 150.802 55.2004 156.002 55.2004C180.002 55.2004 210.002 74.8004 240.002 104.4C226.002 119.6 212.002 137.2 198.402 156.4C175.202 158.4 153.202 162 132.402 166.4C130.002 157.2 128.402 148.4 126.802 140V140ZM28.0016 256C28.0016 237.2 50.8016 217.2 90.8016 202.4C98.8016 199.2 107.602 196.4 116.402 194C122.802 214 130.802 235.2 140.402 256.4C130.802 277.6 122.402 298.4 116.402 318.4C61.2016 302.4 28.0016 278.4 28.0016 256ZM142.002 453.2C125.602 443.6 120.002 414 126.802 372C128.002 363.6 130.002 354.8 132.402 345.6C153.202 350.4 175.202 353.6 198.402 355.6C212.002 374.8 226.002 392 240.002 407.6C210.402 436.8 180.402 456.8 156.002 456.8C150.802 456.8 146.002 455.6 142.002 453.2ZM385.202 372C392.002 414 386.402 443.6 370.002 453.2C366.002 455.6 361.202 456.8 356.002 456.8C332.002 456.8 302.002 437.2 272.002 407.6C286.002 392.4 300.002 374.8 313.602 355.6C336.802 353.6 358.802 350 379.602 345.6C382.002 354.8 383.602 363.6 385.202 372V372ZM421.202 309.6C413.202 312.8 404.402 315.6 395.602 318C389.202 298 381.202 276.8 371.602 255.6C381.202 234.4 389.602 213.6 395.602 193.6C450.802 209.6 484.002 233.6 484.002 256C484.002 274.8 460.802 294.8 421.202 309.6Z" fill="#61DAFB"/>
</svg>
