<svg width="513" height="512" viewBox="0 0 513 512" fill="none" xmlns="http://www.w3.org/2000/svg">
<path d="M256.016 102.408C187.748 102.408 145.096 136.528 128.016 204.796C153.608 170.672 183.484 157.876 217.608 166.408C237.092 171.264 251.016 185.392 266.436 201.048C291.532 226.516 320.58 256 384.016 256C452.28 256 494.936 221.876 512.016 153.592C486.42 187.736 456.548 200.532 422.42 192C402.94 187.14 389.032 173.016 373.592 157.36C348.512 131.892 319.472 102.408 256.016 102.408V102.408ZM128.016 256C59.7516 256 17.0956 290.124 0.015625 358.408C25.6076 324.264 55.4796 311.468 89.6076 320C109.092 324.86 123.016 338.984 138.436 354.64C163.532 380.108 192.58 409.592 256.016 409.592C324.28 409.592 366.936 375.472 384.016 307.204C358.42 341.328 328.548 354.124 294.42 345.592C274.94 340.736 261.032 326.608 245.592 310.952C220.512 285.484 191.472 256 128.016 256Z" fill="#38B2AC"/>
</svg>
