<svg width="512" height="512" viewBox="0 0 512 512" fill="none" xmlns="http://www.w3.org/2000/svg">
<path d="M8 255.64V505.64H508V5.64014H8V255.64ZM410.92 235.64C422.896 238.419 433.78 244.683 442.2 253.64C446.835 258.466 450.865 263.839 454.2 269.64C454.2 270.28 432.6 284.88 419.44 293.04C418.96 293.36 417.04 291.28 414.92 288.12C412.518 283.975 409.104 280.506 404.998 278.037C400.892 275.567 396.228 274.179 391.44 274C376.28 272.96 366.52 280.92 366.6 294C366.475 297.257 367.22 300.488 368.76 303.36C372.08 310.28 378.28 314.4 397.72 322.8C433.52 338.2 448.84 348.36 458.36 362.8C469 378.8 471.36 404.64 464.16 423.76C456.16 444.56 436.56 458.68 408.84 463.36C396.179 464.81 383.387 464.676 370.76 462.96C351.489 459.834 333.711 450.658 320 436.76C315.4 431.68 306.44 418.44 307 417.48C308.46 416.396 309.998 415.42 311.6 414.56L330 404L344.36 395.68L347.36 400.12C352.423 407.363 358.866 413.534 366.32 418.28C382.32 426.68 404.16 425.52 414.96 415.8C418.586 412.238 420.848 407.518 421.353 402.46C421.857 397.402 420.571 392.328 417.72 388.12C413.72 382.56 405.72 377.88 383.36 368.12C357.56 357 346.44 350.12 336.28 339.16C329.937 331.928 325.254 323.395 322.56 314.16C320.55 303.61 320.253 292.805 321.68 282.16C327 257.24 345.68 239.84 372.96 234.68C385.594 233.117 398.391 233.468 410.92 235.72V235.64ZM293.56 256.6V277.08H228.64V462H182.6V277.04H117.52V257.04C117.345 250.155 117.532 243.266 118.08 236.4C118.32 236.08 158.08 235.92 206.08 236H293.32L293.56 256.6Z" fill="#007ACC"/>
</svg>
